<svg id="Layer_1" data-name="Layer 1" xmlns="http://www.w3.org/2000/svg" viewBox="0 0 350 187.5"><defs><style>.cls-1{fill:#009649;}</style></defs><title>grass_back</title><path class="cls-1" d="M343.66,80.46s-13.95,8-27.57,80.07c1.76-20.47-2.25-71.2-59.8-156.87,0,0,13.95,41.13,19,87.25-3.08,6-6.9,15.4-11,29.87C260,106.34,255,82.37,249.74,42.63c0,0-10.36,3.5-15.88,28.69-8.91-19.51-21.34-42-38.56-67.66,0,0,18.22,53.74,20.48,107.23-3-16.12-5.74-24.58-7.8-29q-.43-2.32-.82-4.73s-.59-.26-1.64.8c-1-1.06-1.64-.8-1.64-.8q-.39,2.42-.82,4.73c-1.45,3.09-3.22,8.18-5.19,16.52-2.85-13.84-5.92-32-9.11-55.82,0,0-8,2.72-13.74,20.61-5.69-17.89-13.74-20.61-13.74-20.61-3.18,23.83-6.25,42-9.11,55.82-2-8.34-3.74-13.43-5.19-16.52q-.43-2.32-.82-4.73s-.59-.26-1.64.8c-1-1.06-1.64-.8-1.64-.8q-.39,2.42-.82,4.73c-2.06,4.4-4.77,12.86-7.8,29C136.49,57.4,154.71,3.66,154.71,3.66c-17.23,25.64-29.65,48.15-38.56,67.66-5.52-25.2-15.88-28.69-15.88-28.69C95,82.37,90,106.34,85.77,120.78c-4.11-14.47-7.93-23.85-11-29.87,5-46.11,19-87.25,19-87.25C36.16,89.33,32.15,140.06,33.91,160.53,20.29,88.44,6.34,80.46,6.34,80.46,19.44,144.9-9,187.84-9,187.84H359S330.56,144.9,343.66,80.46Z"/></svg>