<svg id="Layer_1" data-name="Layer 1" xmlns="http://www.w3.org/2000/svg" viewBox="0 0 337.11 128.53"><defs><style>.cls-1{fill:#8dc63f;}.cls-2{fill:#00753b;}</style></defs><title>grass_front</title><path class="cls-1" d="M288.52,71.39c6.28-9.55,13.68-18.43,22.22-24.91,0,0-17.82,1.05-43.89,21.82C261.16,41,248.91,5,248.91,5c4,31.13-14,65.59-25.85,84.29C211.22,70.63,193.17,36.17,197.22,5c0,0-8.09,23.73-14.18,47.3a114.09,114.09,0,0,0-14.48,8.17,114.09,114.09,0,0,0-14.48-8.17C148,28.78,139.9,5,139.9,5c4,31.13-14,65.59-25.85,84.29C102.22,70.63,84.17,36.17,88.21,5,88.21,5,76,41,70.26,68.3,44.19,47.53,26.38,46.48,26.38,46.48,34.91,53,42.32,61.84,48.6,71.39a34.34,34.34,0,0,0-21.5-3.87S65.54,106.38,54.7,130H282.42C271.58,106.38,310,67.53,310,67.53A34.34,34.34,0,0,0,288.52,71.39Z"/><path class="cls-2" d="M310.77,92.43a103.51,103.51,0,0,1,26.34-16s-21.12.68-52,14c-6.75-17.52-21.28-40.53-21.28-40.53,4.79,19.95-16.61,42-30.64,54-14-12-35.43-34.06-30.64-54a343.57,343.57,0,0,0-16.81,30.31c-5,1.27-10.8,3-17.16,5.23-6.36-2.26-12.13-4-17.16-5.23a343.57,343.57,0,0,0-16.81-30.31c4.79,19.95-16.61,42-30.64,54-14-12-35.43-34.06-30.64-54,0,0-14.52,23-21.28,40.53-30.9-13.31-52-14-52-14a103.51,103.51,0,0,1,26.34,16A71.26,71.26,0,0,0,.86,90s45.57,24.9,32.72,40h270c-12.85-15.1,32.72-40,32.72-40A71.26,71.26,0,0,0,310.77,92.43Z"/></svg>