<svg id="circles" xmlns="http://www.w3.org/2000/svg" xmlns:xlink="http://www.w3.org/1999/xlink" viewBox="0 0 936 648"><defs><style>.cls-1,.cls-43,.cls-44,.cls-45,.cls-46,.cls-47,.cls-48,.cls-49,.cls-50,.cls-51,.cls-52,.cls-53,.cls-54,.cls-55,.cls-56,.cls-57,.cls-58,.cls-59,.cls-60,.cls-61,.cls-62,.cls-63,.cls-65,.cls-66,.cls-67,.cls-68,.cls-69,.cls-70,.cls-71,.cls-72,.cls-73,.cls-74,.cls-75,.cls-76,.cls-77,.cls-78,.cls-79,.cls-80,.cls-81,.cls-82,.cls-83,.cls-84,.cls-85{stroke:#fff;}.cls-1,.cls-10,.cls-11,.cls-12,.cls-13,.cls-14,.cls-15,.cls-16,.cls-17,.cls-18,.cls-19,.cls-2,.cls-20,.cls-21,.cls-22,.cls-23,.cls-24,.cls-25,.cls-26,.cls-27,.cls-28,.cls-29,.cls-3,.cls-30,.cls-31,.cls-32,.cls-33,.cls-34,.cls-35,.cls-36,.cls-37,.cls-38,.cls-39,.cls-4,.cls-40,.cls-41,.cls-42,.cls-43,.cls-44,.cls-45,.cls-46,.cls-47,.cls-48,.cls-49,.cls-5,.cls-50,.cls-51,.cls-52,.cls-53,.cls-54,.cls-55,.cls-56,.cls-57,.cls-58,.cls-59,.cls-6,.cls-60,.cls-61,.cls-62,.cls-63,.cls-64,.cls-65,.cls-66,.cls-67,.cls-68,.cls-69,.cls-7,.cls-70,.cls-71,.cls-72,.cls-73,.cls-74,.cls-75,.cls-76,.cls-77,.cls-78,.cls-79,.cls-8,.cls-80,.cls-81,.cls-82,.cls-83,.cls-84,.cls-85,.cls-9{stroke-linejoin:round;}.cls-1,.cls-85{stroke-width:0.4px;}.cls-1{fill:url(#radial-gradient);}.cls-10,.cls-11,.cls-12,.cls-13,.cls-14,.cls-15,.cls-16,.cls-17,.cls-18,.cls-19,.cls-2,.cls-20,.cls-21,.cls-22,.cls-23,.cls-24,.cls-25,.cls-26,.cls-27,.cls-28,.cls-29,.cls-3,.cls-30,.cls-31,.cls-32,.cls-33,.cls-34,.cls-35,.cls-36,.cls-37,.cls-38,.cls-39,.cls-4,.cls-40,.cls-41,.cls-42,.cls-43,.cls-44,.cls-45,.cls-46,.cls-47,.cls-48,.cls-49,.cls-5,.cls-50,.cls-51,.cls-52,.cls-53,.cls-54,.cls-55,.cls-56,.cls-57,.cls-58,.cls-59,.cls-6,.cls-60,.cls-61,.cls-62,.cls-63,.cls-64,.cls-65,.cls-66,.cls-67,.cls-68,.cls-69,.cls-7,.cls-70,.cls-71,.cls-72,.cls-73,.cls-74,.cls-75,.cls-76,.cls-77,.cls-78,.cls-79,.cls-8,.cls-80,.cls-81,.cls-82,.cls-83,.cls-84,.cls-85,.cls-9{fill:none;}.cls-10,.cls-11,.cls-12,.cls-13,.cls-14,.cls-15,.cls-16,.cls-17,.cls-18,.cls-19,.cls-2,.cls-20,.cls-21,.cls-22,.cls-23,.cls-24,.cls-25,.cls-26,.cls-27,.cls-28,.cls-29,.cls-3,.cls-30,.cls-31,.cls-32,.cls-33,.cls-34,.cls-35,.cls-36,.cls-37,.cls-38,.cls-39,.cls-4,.cls-40,.cls-41,.cls-42,.cls-5,.cls-6,.cls-64,.cls-7,.cls-8,.cls-9{stroke:#000;}.cls-2{stroke-width:28.75px;}.cls-3{stroke-width:23.96px;}.cls-4{stroke-width:19.97px;}.cls-5{stroke-width:16.64px;}.cls-6{stroke-width:13.87px;}.cls-7{stroke-width:11.56px;}.cls-8{stroke-width:9.63px;}.cls-9{stroke-width:8.02px;}.cls-10{stroke-width:6.69px;}.cls-11{stroke-width:5.57px;}.cls-12{stroke-width:4.64px;}.cls-13{stroke-width:3.87px;}.cls-14{stroke-width:3.22px;}.cls-15{stroke-width:2.69px;}.cls-16{stroke-width:2.24px;}.cls-17{stroke-width:1.87px;}.cls-18{stroke-width:1.56px;}.cls-19{stroke-width:1.3px;}.cls-20{stroke-width:1.08px;}.cls-21{stroke-width:0.9px;}.cls-22{stroke-width:42.17px;}.cls-23{stroke-width:35.14px;}.cls-24{stroke-width:29.29px;}.cls-25{stroke-width:24.4px;}.cls-26{stroke-width:20.34px;}.cls-27{stroke-width:16.95px;}.cls-28{stroke-width:14.12px;}.cls-29{stroke-width:11.77px;}.cls-30{stroke-width:9.81px;}.cls-31{stroke-width:8.17px;}.cls-32{stroke-width:6.81px;}.cls-33{stroke-width:5.68px;}.cls-34{stroke-width:4.73px;}.cls-35{stroke-width:3.94px;}.cls-36{stroke-width:3.28px;}.cls-37{stroke-width:2.74px;}.cls-38{stroke-width:2.28px;}.cls-39{stroke-width:1.9px;}.cls-40{stroke-width:1.58px;}.cls-41{stroke-width:1.32px;}.cls-42{stroke-width:1.1px;}.cls-43{stroke-width:19.17px;}.cls-44{stroke-width:15.97px;}.cls-45{stroke-width:13.31px;}.cls-46{stroke-width:11.09px;}.cls-47{stroke-width:9.24px;}.cls-48{stroke-width:7.7px;}.cls-49{stroke-width:6.42px;}.cls-50{stroke-width:5.35px;}.cls-51{stroke-width:4.46px;}.cls-52{stroke-width:3.72px;}.cls-53{stroke-width:3.1px;}.cls-54{stroke-width:2.58px;}.cls-55{stroke-width:2.15px;}.cls-56{stroke-width:1.79px;}.cls-57{stroke-width:1.49px;}.cls-58{stroke-width:1.24px;}.cls-59{stroke-width:1.04px;}.cls-60{stroke-width:0.86px;}.cls-61{stroke-width:0.72px;}.cls-62{stroke-width:0.6px;}.cls-63{stroke-width:0.5px;}.cls-64{stroke-width:3px;}.cls-65{stroke-width:2px;}.cls-66{stroke-width:12.78px;}.cls-67{stroke-width:10.65px;}.cls-68{stroke-width:8.87px;}.cls-69{stroke-width:7.4px;}.cls-70{stroke-width:6.16px;}.cls-71{stroke-width:5.14px;}.cls-72{stroke-width:4.28px;}.cls-73{stroke-width:3.57px;}.cls-74{stroke-width:2.97px;}.cls-75{stroke-width:2.48px;}.cls-76{stroke-width:2.06px;}.cls-77{stroke-width:1.72px;}.cls-78{stroke-width:1.43px;}.cls-79{stroke-width:1.19px;}.cls-80{stroke-width:1px;}.cls-81{stroke-width:0.83px;}.cls-82{stroke-width:0.69px;}.cls-83{stroke-width:0.58px;}.cls-84{stroke-width:0.48px;}</style><radialGradient id="radial-gradient" cx="468" cy="324" r="420.21" gradientUnits="userSpaceOnUse"><stop offset="0" stop-color="#ffbfbf"/><stop offset="0.52" stop-color="#d400ff"/><stop offset="1" stop-color="#ff4dc4"/></radialGradient></defs><title>hero-background-13</title><rect class="cls-1" x="-18" y="-18" width="972" height="684"/><path class="cls-2" d="M1002.09,365.12c53.41,48.61,46.72,85.52-20.6,112.43-8.82-20.59-25.62-43.23-50.86-67C962.76,396.84,986.46,381.36,1002.09,365.12ZM857.42,581c14.71,34.19,21.36,63.3,21.18,86.89,73.94,2.67,94.29-29.89,61.88-99.42C919.4,576.53,891.72,581,857.42,581ZM933,228.72c30.09,11.9,52.73,25.73,68,40.61,51.16-49.78,44.61-85.18-19.68-109.74C973.76,180.62,958,204,933,228.72ZM211,713.42c-34.19,14.71-63.3,21.36-86.89,21.18-2.67,73.94,29.9,94.29,99.43,61.88C215.47,775.4,211,747.72,211,713.42Zm518.49,1.89c0,34.67-4.78,62.42-13.44,83.13,65.9,30,96.7,10.05,94.9-62.71C788.61,735.68,761.23,729.13,729.52,715.31ZM859.31,62.48c34.67,0,62.42,4.78,83.13,13.44,30-65.9,10-96.69-62.71-94.9C879.68,3.39,873.13,30.77,859.31,62.48ZM381.46,786.63c-23.77,25.24-46.41,42-67,50.86,26.91,67.32,63.82,74,112.43,20.6C410.64,842.46,395.16,818.76,381.46,786.63ZM563.28,789c-11.9,30.09-25.73,52.72-40.61,68,49.78,51.16,85.18,44.61,109.74-19.67C611.38,829.76,588,814,563.28,789ZM725-65.42c34.19-14.71,63.3-21.36,86.89-21.18,2.66-73.94-29.9-94.29-99.42-61.88C720.53-127.4,725-99.72,725-65.42ZM5.37,237.45c-25.24-23.77-42-46.41-50.86-67-67.32,26.91-74,63.82-20.6,112.43C-50.46,266.63-26.76,251.15,5.37,237.45ZM56.28,667c0-22.37,6.59-49.75,20.42-81.46-34.67,0-62.42-4.78-83.13-13.44C-36.44,638-16.48,668.78,56.28,667ZM78.58,67C63.87,32.84,57.22,3.73,57.4-19.86-16.53-22.52-36.89,10-4.48,79.56,16.6,71.47,44.28,67,78.58,67ZM3,419.27c-30.09-11.9-52.72-25.73-68-40.61-51.16,49.78-44.61,85.18,19.67,109.74C-37.76,467.38-22,444,3,419.27ZM206.48-67.31c0-34.67,4.78-62.42,13.44-83.13-65.9-30-96.7-10-94.9,62.71C147.39-87.68,174.77-81.13,206.48-67.31Zm348.07-71.32c23.77-25.24,46.41-42,67-50.86-26.91-67.32-63.81-74-112.42-20.6C525.37-194.46,540.85-170.76,554.55-138.63ZM372.73-141c11.9-30.09,25.73-52.72,40.61-68-49.78-51.16-85.18-44.61-109.74,19.67C324.63-181.76,348-166,372.73-141Z"/><path class="cls-3" d="M897.84,444.44c35.75,48.41,24.28,77.49-35.12,88.54-3.86-18.26-13.91-39.5-30.67-63C860.54,464,882.43,455.17,897.84,444.44ZM744.5,597.34c6.47,30.33,7.17,55.21,3.18,74.46,60,14.2,81.93-9.1,66.74-71.2C795.88,603.79,772.53,603,744.5,597.34Zm119-275.62c22.66,14.61,38.91,29.6,49,44.25,49.91-32.37,50.31-62.37,1.76-92.89C904.68,289,888,305.55,863.52,321.72ZM194.67,600.5c-30.33,6.47-55.21,7.17-74.46,3.18-14.2,60,9.11,81.93,71.2,66.74C188.22,651.89,189,628.53,194.67,600.5Zm423.47,85.84c-5.6,28.34-14.05,50.24-24.5,65.76,49,35.23,77.4,23.93,87.76-35.83C663.11,712.6,641.8,702.79,618.13,686.34ZM830.34,173.87c28.34,5.6,50.24,14.05,65.76,24.5,35.23-49,23.93-77.39-35.83-87.76C856.6,128.89,846.79,150.2,830.34,173.87ZM322.05,688c-23.53,16.76-44.77,26.81-63,30.67,11,59.4,40.12,70.87,88.54,35.12C336.83,738.43,328,716.53,322.05,688Zm148.23,31.47c-14.62,22.66-29.6,38.91-44.25,49,32.37,49.91,62.37,50.31,92.89,1.76C503,760.67,486.45,744,470.28,719.52Zm271.06-672c30.33-6.47,55.21-7.17,74.46-3.18,14.2-60-9.11-81.93-71.2-66.74C747.79-3.89,747,19.47,741.34,47.5ZM104,178.05c-16.76-23.53-26.81-44.77-30.67-63-59.4,11-70.87,40.13-35.12,88.54C53.57,192.82,75.46,184,104,178.05ZM75.73,537.39c3.67-18.28,13.48-39.59,29.93-63.26-28.34-5.6-50.24-14.05-65.76-24.5C4.67,498.62,16,527,75.73,537.39ZM191.5,50.66C185,20.33,184.33-4.55,188.31-23.8c-60-14.2-81.93,9.1-66.74,71.2C140.12,44.21,163.47,45,191.5,50.66Zm-119,275.61c-22.66-14.62-38.91-29.6-49-44.25-49.91,32.37-50.31,62.37-1.76,92.89C31.33,359,48,342.45,72.48,326.28ZM317.87-38.34c5.6-28.34,14.05-50.24,24.5-65.76-49-35.23-77.4-23.93-87.76,35.83C272.89-64.6,294.2-54.79,317.87-38.34ZM613.95-40c23.53-16.76,44.77-26.81,63-30.67-11-59.4-40.12-70.87-88.54-35.12C599.18-90.43,608-68.54,613.95-40ZM465.72-71.52c14.62-22.66,29.6-38.91,44.25-49-32.37-49.91-62.37-50.31-92.89-1.76C433-112.67,449.55-96,465.72-71.52Z"/><path class="cls-4" d="M799.73,492.32C821.09,537.7,807,559.6,756.64,559c-.19-15.55-4.95-34.55-14.82-56.5C766.07,502.22,785.39,498.59,799.73,492.32Zm-150.18,100c.35,25.84-3.12,46.29-9.5,61.38,46.73,21.36,68.44,5.88,66.12-47.34C690.5,606,671.54,601.52,649.55,592.36ZM791.64,386.44c16.14,15.63,27,30.52,32.84,44.13,46.05-18.34,51.26-42.8,16.54-75.64C830.59,366.42,814.25,377.2,791.64,386.44Zm-592,119.12c-25.84.35-46.29-3.12-61.38-9.5-21.36,46.73-5.88,68.44,47.35,66.12C186,546.5,190.48,527.54,199.65,505.55Zm332.15,139c-9.19,22.25-19.66,38.78-30.72,49.76,34.31,36.76,59.37,32.15,77.55-15C564.29,673.33,548.47,661.85,531.8,644.56ZM788.56,260.2c22.25,9.19,38.78,19.65,49.76,30.72,36.76-34.31,32.14-59.37-15-77.55C817.33,227.71,805.85,243.53,788.56,260.2Zm-499,337.61c-22,9.87-41,14.64-56.5,14.82-.63,50.34,21.27,64.45,66.66,43.1C293.41,641.39,289.78,622.07,289.53,597.81Zm116,49.82c-15.63,16.14-30.52,27-44.13,32.84,18.34,46.05,42.8,51.26,75.64,16.54C425.58,686.59,414.8,670.25,405.56,647.63ZM736.36,142.45c25.84-.35,46.29,3.12,61.38,9.5,21.36-46.73,5.88-68.44-47.34-66.12C750,101.5,745.52,120.46,736.36,142.45Zm-542.17,3.08c-9.87-22-14.64-40.95-14.82-56.5-50.34-.63-64.45,21.27-43.1,66.66C150.61,149.41,169.93,145.78,194.19,145.53ZM112.7,434.63c6-14.34,17.45-30.17,34.75-46.84-22.25-9.19-38.78-19.65-49.76-30.71C60.92,391.39,65.54,416.45,112.7,434.63Zm173.75-379c-.35-25.84,3.12-46.29,9.5-61.38-46.73-21.36-68.44-5.88-66.12,47.34C245.5,42,264.46,46.48,286.45,55.64ZM144.37,261.56c-16.14-15.63-27-30.52-32.84-44.13C65.47,235.77,60.27,260.23,95,293.07,105.41,281.58,121.75,270.8,144.37,261.56ZM404.2,3.44c9.19-22.25,19.65-38.78,30.72-49.76-34.31-36.76-59.37-32.14-77.55,15C371.71-25.33,387.53-13.85,404.2,3.44ZM646.47,50.19c22-9.87,41-14.64,56.5-14.82C703.6-15,681.7-29.08,636.32-7.73,642.59,6.61,646.22,25.93,646.47,50.19ZM530.44.37c15.63-16.14,30.52-27,44.13-32.84C556.23-78.53,531.77-83.73,498.93-49,510.42-38.59,521.2-22.25,530.44.37Z"/><path class="cls-5" d="M711.77,515.5c10.07,40.56-5,56.17-46.06,47.47,2.38-12.74,1.57-29-2.93-48.59C682.65,518.12,699,518.29,711.77,515.5Zm-139,57.35C568.85,594,562.69,610.18,555,621.47c34.72,25.06,55,15.93,61.74-27.95C604,590.64,589.24,583.91,572.76,572.85Zm149.6-145.2C733,443,739.46,457,742,469.05c40.62-7.5,48.85-26.65,25.82-59.13C757.46,417.62,742.35,423.77,722.36,427.65Zm-503.21,1.11C198,424.85,181.82,418.69,170.53,411c-25.05,34.72-15.93,55,27.95,61.74C201.36,460,208.09,445.24,219.15,428.76ZM468,596.37c-11.13,16.69-22.37,28.5-33.19,35.68,22.06,35.62,43.3,35.92,65.83.34C489.91,625.17,478.84,613.21,468,596.37ZM740.37,324c16.7,11.13,28.5,22.37,35.68,33.19,35.62-22.06,35.92-43.29.33-65.82C769.17,302.09,757.21,313.16,740.37,324ZM277.62,518.78c-19.55,4.5-35.85,5.31-48.59,2.93-8.7,41,6.91,56.13,47.47,46.06C273.71,555,273.88,538.65,277.62,518.78Zm86.73,59.58C349,589,335,595.46,322.95,598c7.5,40.62,26.64,48.85,59.13,25.82C374.38,613.45,368.23,598.35,364.35,578.36Zm352.5-359.12c21.18,3.91,37.33,10.07,48.62,17.75,25.05-34.72,15.93-55-27.95-61.74C734.64,188,727.91,202.76,716.85,219.24ZM273.22,133.62c-4.5-19.55-5.31-35.85-2.93-48.59-41-8.7-56.13,6.91-46.06,47.47C237,129.71,253.35,129.88,273.22,133.62Zm-113.6,223c7.21-10.75,19.17-21.82,36-32.63-16.7-11.13-28.5-22.37-35.68-33.19C124.33,312.9,124,334.13,159.62,356.66ZM363.24,75.15C367.15,54,373.31,37.82,381,26.53,346.27,1.48,326,10.6,319.25,54.48,332,57.36,346.76,64.09,363.24,75.15Zm-149.6,145.2C203,205,196.54,191,194,178.95c-40.62,7.5-48.85,26.64-25.82,59.13C178.55,230.38,193.65,224.23,213.64,220.35ZM468,51.63c11.13-16.7,22.37-28.5,33.19-35.68-22.06-35.62-43.3-35.92-65.83-.33C446.09,22.83,457.16,34.79,468,51.63Zm190.41,77.59c19.55-4.5,35.85-5.3,48.59-2.93,8.7-41-6.91-56.13-47.47-46.06C662.3,93,662.12,109.35,658.38,129.22ZM571.65,69.64C587,59,601,52.54,613.05,50c-7.5-40.62-26.64-48.85-59.13-25.82C561.62,34.55,567.77,49.65,571.65,69.64Z"/><path class="cls-6" d="M636.1,520.15c1.64,34.79-13.23,45.09-45.36,31.31,4-10,6-23.48,5.51-40.19C611.88,517.56,625.24,520.36,636.1,520.15ZM513.17,544.42c-6.64,16.67-14.3,28.87-22.41,36.85,24.3,26.12,42.35,22,55-12.8C535.82,564,524.84,556.14,513.17,544.42ZM659,450.07c6.2,14.32,9.2,26.75,9.34,37,34.42.47,44.26-13.84,30.71-44.13C689.36,447.57,676,450.15,659,450.07Zm-411.47-80.9c-16.67-6.64-28.87-14.3-36.85-22.41-26.12,24.3-22,42.35,12.8,55C228,391.82,235.86,380.84,247.58,369.17ZM423.74,546.62c-11.81,11.84-22.92,19.66-32.93,23.76,12.24,32.7,29.55,36.4,53.75,11C436.95,573.71,429.84,562.14,423.74,546.62ZM690.62,368.26c11.84,11.81,19.66,22.92,23.76,32.93,32.7-12.24,36.4-29.55,11-53.75C717.71,355.06,706.14,362.16,690.62,368.26Zm-409.89,84c-16.71.5-30.16-1.49-40.19-5.51-13.78,32.13-3.48,47,31.31,45.36C271.64,481.24,274.44,467.87,280.73,452.25Zm61.2,62.8c-14.32,6.2-26.75,9.2-37,9.34-.47,34.42,13.84,44.26,44.13,30.71C344.43,545.36,341.85,532,341.93,515ZM688.42,278.83c16.67,6.64,28.87,14.3,36.85,22.41,26.12-24.3,22-42.35-12.8-55C708,256.18,700.14,267.16,688.42,278.83ZM339.75,136.73c-.5-16.71,1.49-30.16,5.51-40.19-32.13-13.78-47-3.48-45.36,31.31C310.76,127.64,324.13,130.44,339.75,136.73ZM210.64,300.56c7.64-7.61,19.21-14.72,34.74-20.81-11.84-11.81-19.66-22.92-23.76-32.93C188.91,259.06,185.22,276.36,210.64,300.56Zm212.19-197c6.64-16.67,14.3-28.87,22.41-36.85-24.3-26.12-42.35-22-55,12.8C400.18,84,411.16,91.86,422.83,103.58ZM277,197.93c-6.2-14.32-9.2-26.75-9.34-37-34.42-.47-44.26,13.84-30.71,44.13C246.64,200.43,260,197.85,277,197.93Zm235.3-96.55c11.81-11.84,22.92-19.66,32.93-23.76-12.24-32.7-29.55-36.4-53.75-11C499.06,74.29,506.16,85.86,512.26,101.38Zm143,94.37c16.71-.5,30.16,1.49,40.19,5.51,13.78-32.13,3.48-47-31.31-45.36C664.36,166.76,661.56,180.12,655.27,195.75ZM594.07,133c14.32-6.2,26.75-9.2,37-9.34.47-34.42-13.84-44.26-44.13-30.71C591.57,102.64,594.15,116,594.07,133Z"/><path class="cls-7" d="M573.51,511.65c-4.32,28.7-18.14,34.7-42.17,18.22,4.91-7.54,8.73-18.21,11-32C554.13,505.59,564.59,510.05,573.51,511.65Zm-104.43-.15C460.94,524,452.7,532.77,444.77,538c15.62,25.3,31,24.83,47-1.52C484.4,531.22,476.71,523,469.08,511.5Zm134.57-53.4c2.74,12.71,3.17,23.36,1.61,31.79,28.06,6,38.42-4.11,32.28-31.08C628.83,461,617.5,460.92,603.65,458.1Zm-323.15-133C268,316.94,259.23,308.7,254,300.77c-25.3,15.62-24.83,31,1.52,47C260.78,340.4,269,332.71,280.5,325.08ZM395.64,498.76c-11.58,7.75-21.93,12.34-30.78,14.07,4.69,28.72,18.23,34.55,42.14,17.71C402,523,398.1,512.44,395.64,498.76ZM642.76,396.36c7.75,11.58,12.34,21.93,14.07,30.78,28.72-4.69,34.55-18.23,17.71-42.14C667,390,656.44,393.9,642.76,396.36Zm-348.66,2c-13.74-2.31-24.41-6.12-32-11-16.49,24-10.48,37.85,18.22,42.17C281.95,420.59,286.41,410.12,294.09,398.37Zm39.81,61.28c-12.71,2.74-23.36,3.17-31.79,1.61-6,28.06,4.11,38.42,31.08,32.28C331,484.83,331.08,473.5,333.9,459.65ZM655.5,322.92C668,331.06,676.77,339.3,682,347.23c25.3-15.62,24.83-31-1.52-47C675.22,307.6,667,315.29,655.5,322.92ZM393.63,150.09c2.31-13.74,6.12-24.41,11-32-24-16.49-37.85-10.48-42.17,18.22C371.41,137.95,381.88,142.41,393.63,150.09ZM261.47,263c7.48-5,18.1-8.9,31.78-11.36-7.75-11.58-12.34-21.93-14.07-30.78C250.46,225.55,244.62,239.09,261.47,263ZM466.92,136.5C475.06,124,483.3,115.23,491.23,110c-15.62-25.3-31-24.83-47,1.52C451.6,116.78,459.29,125,466.92,136.5ZM332.35,189.9c-2.74-12.71-3.17-23.36-1.61-31.79-28.06-6-38.42,4.11-32.28,31.08C307.17,187,318.5,187.08,332.35,189.9Zm208-40.66c11.58-7.75,21.93-12.34,30.78-14.07-4.69-28.72-18.23-34.55-42.14-17.71C534,125,537.9,135.56,540.36,149.24ZM641.91,249.63c13.74,2.31,24.41,6.12,32,11,16.49-24,10.48-37.85-18.22-42.17C654.05,227.41,649.59,237.88,641.91,249.63ZM602.1,188.35c12.71-2.74,23.36-3.17,31.79-1.61,6-28.06-4.11-38.42-31.08-32.28C605,163.17,604.92,174.5,602.1,188.35Z"/><path class="cls-8" d="M523.73,494.52c-8.19,22.76-20.47,25.42-37.43,8,5.24-5.37,10.09-13.47,14.21-24.32C508.87,486.42,516.7,491.77,523.73,494.52Zm-85.33-17.1c-8.69,8.93-16.85,14.72-24.17,17.69,8.65,23.22,21.33,25.34,38.69,6.4C447.72,496,442.77,488,438.4,477.42Zm118.67-21.77c.18,10.83-1.2,19.61-3.85,26.25,22,9.45,32.07,2.88,31.43-20.15C577.18,462.11,567.93,460.21,557.07,455.65ZM314.58,294.4c-8.93-8.69-14.72-16.85-17.69-24.17-23.22,8.65-25.34,21.33-6.4,38.69C296,303.72,304,298.77,314.58,294.4Zm65.87,160.67c-10.72,4.46-19.93,6.52-27.44,6.49-.84,24.23,9.28,31.21,31.57,21.32C381.71,476,380.23,466.65,380.44,455.07Zm218.62-43.51c4.46,10.72,6.52,19.93,6.5,27.44,24.23.84,31.2-9.28,21.32-31.57C620,410.29,610.65,411.77,599.07,411.56Zm-285.3-55c-10.85-4.12-19-9-24.32-14.21-17.38,17-14.72,29.23,8,37.43C300.23,372.7,305.58,364.87,313.77,356.51Zm22.58,56.56c-10.83.18-19.61-1.2-26.25-3.85-9.45,22-2.89,32.07,20.15,31.43C329.89,433.18,331.79,423.93,336.35,413.07ZM621.42,353.6c8.93,8.69,14.72,16.85,17.69,24.17,23.22-8.65,25.34-21.33,6.4-38.69C640,344.28,632,349.23,621.42,353.6ZM435.49,169.77c4.12-10.85,9-19,14.21-24.32-17-17.38-29.23-14.72-37.43,8C419.3,156.23,427.13,161.58,435.49,169.77Zm-126.37,70.8c6.93-2.85,16.24-4.34,27.82-4.12-4.46-10.72-6.52-19.93-6.5-27.44C306.2,208.17,299.23,218.28,309.11,240.57Zm188.49-70c8.69-8.93,16.85-14.72,24.17-17.69-8.65-23.22-21.33-25.34-38.69-6.4C488.28,152,493.23,160,497.6,170.58ZM378.93,192.35c-.18-10.83,1.2-19.61,3.85-26.25-22-9.45-32.07-2.89-31.43,20.15C358.82,185.89,368.07,187.79,378.93,192.35Zm176.62.59c10.72-4.46,19.93-6.52,27.44-6.49.84-24.23-9.28-31.21-31.57-21.32C554.29,172,555.77,181.35,555.56,192.93Zm66.68,98.55c10.85,4.12,19,9,24.32,14.21,17.38-17,14.72-29.23-8-37.42C635.77,275.3,630.42,283.13,622.23,291.49Zm-22.58-56.56c10.83-.18,19.61,1.2,26.25,3.85,9.45-22,2.89-32.07-20.15-31.43C606.11,214.82,604.21,224.07,599.65,234.93Z"/><path class="cls-9" d="M485.82,472.43c-10.4,17.27-20.86,17.44-31.9.48,5.16-3.53,10.44-9.37,15.57-17.57C475,463.39,480.53,469,485.82,472.43Zm-67-27.85c-8.56,5.89-16.16,9.29-22.63,10.53,3.3,20.38,13.32,24.18,30.58,11.52C423.45,461.31,420.71,454,418.86,444.58Zm100.53,1.5c-1.62,8.88-4.17,15.83-7.41,20.83,16.41,11.29,25.74,7.57,29-11.36C534.78,454.63,527.53,451.58,519.39,446.08Zm-172-171.22c-5.89-8.56-9.29-16.16-10.53-22.63-20.38,3.3-24.18,13.32-11.52,30.58C330.69,279.46,338,276.71,347.42,274.87Zm27.71,142c-9.49,1.9-17.35,2.09-23.49.85-4.62,19.67,2.51,27,22.33,22.56C372.77,434.17,373.07,426.32,375.13,416.89Zm185.76,0c1.9,9.49,2.09,17.35.85,23.49,19.67,4.62,27-2.51,22.56-22.33C578.17,419.23,570.32,418.93,560.89,416.87ZM336.66,325.5c-8.2-5.13-14-10.42-17.57-15.57-17,11-16.79,21.5.48,31.89C323,336.53,328.61,331,336.66,325.5Zm9.26,49.9c-8.88-1.62-15.83-4.17-20.83-7.41-11.29,16.41-7.57,25.74,11.36,29C337.37,390.78,340.43,383.53,345.92,375.39Zm242.67-2.26c5.89,8.56,9.29,16.16,10.53,22.63,20.38-3.3,24.18-13.32,11.52-30.58C605.31,368.55,598,371.29,588.58,373.14ZM466.5,192.66c5.13-8.2,10.42-14,15.57-17.57-11-17-21.5-16.79-31.89.48C455.47,179,461,184.61,466.5,192.66ZM351.7,230c6.13-1.21,14-.9,23.41,1.15-1.9-9.49-2.09-17.35-.85-23.49C354.59,203,347.25,210.16,351.7,230Zm165.43-26.56c8.56-5.89,16.16-9.29,22.63-10.53-3.3-20.38-13.32-24.18-30.58-11.52C512.55,186.69,515.29,194,517.14,203.42Zm-100.53-1.5c1.62-8.88,4.17-15.83,7.41-20.83-16.41-11.29-25.74-7.57-29,11.36C401.22,193.37,408.47,196.42,416.61,201.92Zm144.26,29.19c9.49-1.9,17.35-2.09,23.49-.85,4.62-19.67-2.51-27-22.33-22.56C563.23,213.83,562.93,221.68,560.87,231.11Zm38.47,91.39c8.2,5.13,14,10.42,17.57,15.57,17-11,16.79-21.5-.48-31.89C613,311.47,607.39,317,599.34,322.5Zm-9.26-49.9c8.88,1.62,15.83,4.17,20.83,7.41,11.29-16.41,7.57-25.74-11.36-29C598.63,257.22,595.58,264.47,590.08,272.61Z"/><path class="cls-10" d="M458.44,448.21c-11.31,12.42-19.89,10.87-26.15-4.79,4.79-2.05,10.05-6,15.58-11.83C451.06,439.07,454.66,444.58,458.44,448.21Zm-50.2-33.65c-8,3.42-14.72,5-20.21,4.93-.62,17.2,7,21.93,23.12,14.39C409.27,429,408.22,422.54,408.24,414.57Zm81.92,17.57c-2.77,7-6,12.26-9.44,15.82,11.58,11.9,19.81,10.37,25.52-4.58C501.35,441.62,495.92,437.95,490.16,432.14ZM377.43,264.24c-3.42-8-5-14.72-4.93-20.21-17.2-.62-21.93,7-14.39,23.12C363,265.27,369.46,264.22,377.43,264.24ZM377,384.82c-8.06,0-14.52-1.11-19.33-3.13-7,15.33-2.34,22.49,14.58,22.07C372.26,398.56,373.78,392.2,377,384.82ZM528.82,415c0,8.06-1.11,14.52-3.13,19.33,15.33,7,22.49,2.34,22.07-14.58C542.56,419.74,536.2,418.22,528.82,415ZM360.41,303.87c-5.87-5.53-9.78-10.79-11.83-15.58-15.66,6.26-17.21,14.84-4.79,26.15C347.42,310.66,352.93,307.06,360.41,303.87Zm-.54,42.29c-7-2.77-12.26-6-15.82-9.44-11.9,11.58-10.37,19.81,4.58,25.52C350.38,357.35,354.05,351.92,359.86,346.16Zm198.7,37.6c3.42,8,5,14.72,4.93,20.21,17.19.62,21.93-7,14.39-23.12C573,382.73,566.54,383.78,558.57,383.76ZM488.13,216.41c5.53-5.87,10.79-9.78,15.58-11.83-6.26-15.66-14.84-17.21-26.15-4.79C481.34,203.42,484.94,208.93,488.13,216.41Zm-99.89,11.84c5.2,0,11.57,1.53,18.94,4.75,0-8.06,1.11-14.52,3.13-19.33C395,206.68,387.82,211.32,388.23,228.25Zm139.53,5.19c8-3.42,14.72-5,20.21-4.93.62-17.2-7-21.93-23.12-14.39C526.73,219,527.78,225.46,527.76,233.43Zm-81.92-17.57c2.77-7,6-12.26,9.44-15.82-11.58-11.9-19.81-10.37-25.52,4.58C434.65,206.38,440.08,210.05,445.84,215.86ZM559,263.18c8.06,0,14.52,1.11,19.33,3.13,7-15.33,2.34-22.49-14.59-22.07C563.74,249.44,562.22,255.8,559,263.18Zm16.59,81c5.87,5.53,9.78,10.79,11.83,15.58,15.66-6.26,17.21-14.84,4.79-26.15C588.58,337.34,583.07,340.94,575.59,344.13Zm.54-42.29c7,2.77,12.26,6,15.82,9.44,11.9-11.58,10.37-19.81-4.58-25.52C585.62,290.66,581.95,296.08,576.14,301.84Z"/><path class="cls-11" d="M440,424c-11.26,8.32-18,5.65-20.59-8.17,4.25-.9,9.19-3.24,14.66-7.13C435.45,415.29,437.49,420.38,440,424Zm-35.56-35.66c-7.05,1.5-12.84,1.67-17.32.74-3.3,14,2.12,19.05,16.56,15.52C402.93,400.26,403.12,394.82,404.43,388.31ZM468.53,416c-3.4,5.27-6.88,9-10.29,11.39,7.53,11.61,14.5,11.7,21.6.41C476.13,425.56,472.29,421.67,468.53,416ZM403.69,260.43c-1.5-7.05-1.67-12.84-.74-17.32-14-3.3-19.05,2.12-15.52,16.56C391.74,258.93,397.18,259.12,403.69,260.43Zm-20,98.49c-6.59-1.3-11.68-3.27-15.29-5.7-8.19,11.39-5.57,18,8.33,20.41C377.62,369.38,379.91,364.42,383.73,358.92Zm119.18,49.35c-1.3,6.59-3.27,11.69-5.7,15.29,11.39,8.19,18,5.57,20.41-8.33C513.38,414.38,508.42,412.09,502.92,408.27ZM383.34,290.06c-3.9-5.47-6.24-10.41-7.13-14.66C362.39,278,359.72,284.73,368,296,371.62,293.49,376.71,291.45,383.34,290.06ZM376,324.53c-5.27-3.4-9-6.88-11.39-10.29-11.61,7.53-11.7,14.5-.41,21.6C366.44,332.13,370.33,328.29,376,324.53Zm156.29,63c1.5,7.05,1.67,12.84.74,17.32,14,3.3,19.05-2.12,15.52-16.56C544.26,389.07,538.82,388.88,532.31,387.57ZM501.94,239.33c5.47-3.9,10.41-6.24,14.66-7.13C514,218.39,507.27,215.72,496,224,498.51,227.62,500.55,232.71,501.94,239.33Zm-83.57-6.56c4.25.85,9.21,3.13,14.71,7,1.3-6.59,3.27-11.69,5.7-15.29C427.39,216.24,420.78,218.87,418.37,232.77Zm113.2,26.92c7.05-1.5,12.84-1.67,17.32-.74,3.3-14-2.12-19.05-16.56-15.52C533.07,247.74,532.88,253.18,531.57,259.69ZM467.47,232c3.4-5.27,6.88-9,10.29-11.39-7.53-11.61-14.5-11.7-21.6-.41C459.87,222.44,463.71,226.33,467.47,232Zm84.8,57.07c6.59,1.3,11.69,3.27,15.29,5.7,8.19-11.39,5.57-18-8.33-20.41C558.38,278.62,556.09,283.58,552.27,289.08Zm.4,68.86c3.9,5.47,6.24,10.41,7.13,14.66C573.61,370,576.28,363.27,568,352,564.38,354.51,559.29,356.55,552.67,357.94ZM560,323.47c5.27,3.4,9,6.88,11.39,10.29,11.61-7.53,11.7-14.5.41-21.6C569.56,315.87,565.67,319.71,560,323.47Z"/><path class="cls-12" d="M428.85,401.15c-10.55,5-15.65,1.69-15.5-10,3.62,0,8-1.15,13.14-3.45C426.55,393.32,427.4,397.82,428.85,401.15Zm-23.27-34.93c-6,.08-10.77-.72-14.27-2.21-5,10.87-1.37,15.92,11,15.38A37.69,37.69,0,0,1,405.59,366.22Zm47.89,33a33.21,33.21,0,0,1-10.26,7.64c4.27,10.71,10,11.92,17.59,3.85C458.14,408.33,455.63,404.53,453.48,399.27Zm-27.7-137.68c-.08-6,.72-10.77,2.21-14.27-10.87-5-15.92-1.37-15.38,11A37.69,37.69,0,0,1,425.78,261.59Zm-32.33,77.25c-5.18-2.14-9-4.57-11.57-7.14-8.55,8-7.48,13.81,3.49,18C386.76,346.39,389.43,342.71,393.45,338.84Zm89.39,59.71c-2.14,5.18-4.57,9-7.14,11.57,8,8.55,13.81,7.48,18-3.49C490.39,405.24,486.71,402.57,482.84,398.55ZM404.32,282.49c-2.3-5.11-3.4-9.52-3.45-13.14-11.71-.15-15,4.95-10,15.5C394.18,283.4,398.68,282.55,404.32,282.49Zm-11.59,27a33.22,33.22,0,0,1-7.64-10.26c-10.71,4.27-11.92,10-3.85,17.59C383.67,314.14,387.47,311.63,392.73,309.48Zm117.49,76.93c.08,6-.72,10.77-2.21,14.27,10.87,5,15.92,1.37,15.38-11A37.69,37.69,0,0,1,510.22,386.41Zm-.72-126.09c5.11-2.3,9.52-3.4,13.14-3.45.15-11.71-4.95-15-15.5-10C508.6,250.18,509.45,254.68,509.51,260.32Zm-67.24-19c3.34,1.39,7,4.06,10.89,8.08,2.14-5.18,4.57-9,7.14-11.57C452.33,229.33,446.5,230.4,442.27,241.37Zm88.14,40.41c6-.08,10.77.72,14.27,2.21,5-10.87,1.37-15.92-11-15.38A37.69,37.69,0,0,1,530.41,281.78Zm-47.89-33a33.22,33.22,0,0,1,10.26-7.64c-4.27-10.71-10-11.92-17.59-3.85C477.86,239.67,480.37,243.47,482.52,248.73Zm60,60.43c5.18,2.14,9,4.57,11.57,7.14,8.55-8,7.48-13.81-3.49-18C549.24,301.61,546.57,305.29,542.55,309.16Zm-10.87,56.34c2.3,5.11,3.4,9.52,3.45,13.14,11.71.15,15-4.95,10-15.5C541.82,364.6,537.32,365.45,531.68,365.51Zm11.59-27a33.21,33.21,0,0,1,7.64,10.26c10.71-4.27,11.92-10,3.85-17.59C552.33,333.87,548.53,336.37,543.27,338.52Z"/><path class="cls-13" d="M423.46,380.69c-9.43,2.34-13.06-1.17-11-10.71a28.39,28.39,0,0,0,11.3-.68A29.16,29.16,0,0,0,423.46,380.69Zm-13.34-32.33a29.9,29.9,0,0,1-11.31-4.13c-5.83,8.07-3.71,12.79,6.5,14.36A31.41,31.41,0,0,1,410.13,348.36Zm33.77,34.79a27.68,27.68,0,0,1-9.63,4.57c1.75,9.45,6.2,11.36,13.75,6C446.23,391.32,444.8,387.8,443.89,383.16Zm-.26-117a29.9,29.9,0,0,1,4.13-11.31c-8.07-5.83-12.79-3.71-14.36,6.5A31.41,31.41,0,0,1,443.64,266.13Zm-39,57.88a29.32,29.32,0,0,1-8.3-7.72c-8.28,5.13-8.35,10.07-.08,15.31A28.45,28.45,0,0,1,404.66,324ZM468,387.34a29.32,29.32,0,0,1-7.72,8.3c5.13,8.28,10.07,8.35,15.31.08A28.45,28.45,0,0,1,468,387.34ZM422.7,279.72a28.4,28.4,0,0,1-.68-11.3c-9.55-2-13.05,1.61-10.71,11A29.16,29.16,0,0,1,422.7,279.72Zm-13.86,20.17a27.69,27.69,0,0,1-4.57-9.63c-9.45,1.74-11.36,6.2-6,13.75C400.68,302.23,404.2,300.8,408.84,299.89Zm83.52,82a29.9,29.9,0,0,1-4.13,11.31c8.07,5.83,12.79,3.71,14.36-6.5A31.41,31.41,0,0,1,492.36,381.87ZM512.28,278.7a28.39,28.39,0,0,1,11.3-.68c2-9.55-1.61-13.05-11-10.71A29.16,29.16,0,0,1,512.28,278.7ZM460.4,252.28a28.44,28.44,0,0,1,7.59,8.38,29.32,29.32,0,0,1,7.72-8.3C470.58,244.07,465.64,244,460.4,252.28Zm65.47,47.36a29.9,29.9,0,0,1,11.31,4.13c5.83-8.07,3.71-12.79-6.5-14.36A31.41,31.41,0,0,1,525.87,299.64Zm-33.77-34.79a27.69,27.69,0,0,1,9.63-4.57c-1.74-9.45-6.2-11.36-13.75-6C489.77,256.68,491.2,260.2,492.11,264.84ZM531.34,324a29.32,29.32,0,0,1,8.3,7.72c8.28-5.13,8.35-10.07.08-15.31A28.45,28.45,0,0,1,531.34,324Zm-18,44.28a28.4,28.4,0,0,1,.68,11.3c9.55,2,13.05-1.61,10.71-11A29.16,29.16,0,0,1,513.3,368.28Zm13.86-20.17a27.68,27.68,0,0,1,4.57,9.63c9.45-1.75,11.36-6.2,6-13.75C535.32,345.77,531.8,347.2,527.16,348.11Z"/><path class="cls-14" d="M422.38,363.1c-8.09.38-10.49-3.08-7.28-10.55a23.66,23.66,0,0,0,9.35,1.28A24.3,24.3,0,0,0,422.38,363.1Zm-5.64-28.59a24.92,24.92,0,0,1-8.57-5.21c-6.08,5.65-5.11,9.85,3,12.79A26.17,26.17,0,0,1,416.74,334.5Zm21.94,33.93a23.06,23.06,0,0,1-8.61,2.17c-.11,8,3.22,10.29,10.26,7.14A21.84,21.84,0,0,1,438.68,368.43Zm18.81-95.69a24.92,24.92,0,0,1,5.21-8.57c-5.65-6.08-9.85-5.11-12.79,3A26.17,26.17,0,0,1,457.5,272.74Zm-41.27,41A24.43,24.43,0,0,1,410.7,306c-7.61,2.85-8.47,6.87-2.55,12.5A23.71,23.71,0,0,1,416.23,313.71Zm41.48,62.07A24.43,24.43,0,0,1,450,381.3c2.85,7.61,6.87,8.47,12.5,2.55A23.71,23.71,0,0,1,457.71,375.77Zm-19.53-95.33a23.66,23.66,0,0,1,1.28-9.35c-7.47-3.21-10.93-.81-10.55,7.28A24.3,24.3,0,0,1,438.17,280.45Zm-14.61,14.23a23.07,23.07,0,0,1-2.17-8.61c-8-.11-10.29,3.22-7.14,10.26A21.84,21.84,0,0,1,423.57,294.68Zm54.94,80.58a24.92,24.92,0,0,1-5.21,8.57c5.65,6.07,9.85,5.11,12.79-3A26.17,26.17,0,0,1,478.5,375.26Zm33-81.09a23.66,23.66,0,0,1,9.35,1.28c3.2-7.47.81-10.93-7.28-10.55A24.3,24.3,0,0,1,511.55,294.17Zm-38.1-30a23.7,23.7,0,0,1,4.84,8.08A24.44,24.44,0,0,1,486,266.7C483.1,259.09,479.08,258.23,473.45,264.15Zm45.81,49.35a24.92,24.92,0,0,1,8.57,5.21c6.07-5.65,5.11-9.85-3-12.79A26.17,26.17,0,0,1,519.26,313.5Zm-21.94-33.93a23.07,23.07,0,0,1,8.61-2.17c.11-8-3.22-10.29-10.26-7.14A21.84,21.84,0,0,1,497.32,279.57Zm22.45,54.72A24.43,24.43,0,0,1,525.3,342c7.61-2.85,8.47-6.87,2.55-12.5A23.71,23.71,0,0,1,519.77,334.29Zm-21.95,33.26a23.67,23.67,0,0,1-1.28,9.35c7.47,3.2,10.93.81,10.55-7.28A24.3,24.3,0,0,1,497.83,367.55Zm14.6-14.23a23.07,23.07,0,0,1,2.17,8.61c8,.11,10.29-3.22,7.14-10.26A21.84,21.84,0,0,1,512.43,353.32Z"/><path class="cls-15" d="M424.36,348.54c-6.68-1-8.07-4.22-4.24-9.81a19.72,19.72,0,0,0,7.43,2.57A20.25,20.25,0,0,0,424.36,348.54Zm0-24.29a20.77,20.77,0,0,1-6.16-5.65c-5.88,3.63-5.78,7.22.35,10.94A21.81,21.81,0,0,1,424.39,324.25Zm12.42,31.3a19.22,19.22,0,0,1-7.39.38c-1.39,6.53,1,8.94,7.23,7.51A18.2,18.2,0,0,1,436.81,355.55Zm30.94-75.15a20.77,20.77,0,0,1,5.65-6.16c-3.63-5.88-7.22-5.78-10.94.35A21.81,21.81,0,0,1,467.75,280.39Zm-40.39,26.78a20.36,20.36,0,0,1-3.27-7.16c-6.68,1.09-8,4.24-4.12,9.8A19.75,19.75,0,0,1,427.36,307.17Zm23.81,57.47a20.36,20.36,0,0,1-7.16,3.27c1.09,6.68,4.24,8,9.8,4.12A19.76,19.76,0,0,1,451.17,364.64Zm-.47-81.09a19.72,19.72,0,0,1,2.57-7.43c-5.59-3.83-8.8-2.44-9.81,4.24A20.25,20.25,0,0,1,450.7,283.55Zm-14.25,9.26a19.23,19.23,0,0,1-.38-7.39c-6.52-1.39-8.94,1-7.51,7.23A18.2,18.2,0,0,1,436.45,292.81Zm31.8,74.79a20.77,20.77,0,0,1-5.65,6.16c3.63,5.88,7.22,5.78,10.94-.35A21.81,21.81,0,0,1,468.25,367.61Zm40.19-60.9a19.72,19.72,0,0,1,7.43,2.57c3.83-5.59,2.44-8.8-4.24-9.81A20.25,20.25,0,0,1,508.45,306.7ZM482.19,276a19.75,19.75,0,0,1,2.64,7.39,20.36,20.36,0,0,1,7.16-3.27C490.9,273.41,487.75,272,482.19,276Zm29.42,47.78a20.77,20.77,0,0,1,6.16,5.65c5.88-3.63,5.78-7.22-.35-10.94A21.81,21.81,0,0,1,511.61,323.75Zm-12.42-31.3a19.23,19.23,0,0,1,7.39-.38c1.39-6.52-1-8.94-7.23-7.51A18.2,18.2,0,0,1,499.19,292.45Zm9.46,48.38a20.36,20.36,0,0,1,3.27,7.16c6.68-1.09,8-4.24,4.12-9.8A19.75,19.75,0,0,1,508.64,340.83ZM485.3,364.45a19.72,19.72,0,0,1-2.57,7.43c5.59,3.83,8.8,2.44,9.81-4.24A20.25,20.25,0,0,1,485.3,364.45Zm14.25-9.26a19.22,19.22,0,0,1,.38,7.39c6.53,1.39,8.94-1,7.51-7.23A18.2,18.2,0,0,1,499.55,355.19Z"/><path class="cls-16" d="M428.34,337c-5.29-1.91-5.91-4.76-1.87-8.7a16.43,16.43,0,0,0,5.66,3.31A16.88,16.88,0,0,0,428.34,337Zm4-19.84a17.3,17.3,0,0,1-4.11-5.62c-5.4,2-5.89,5-1.49,9A18.17,18.17,0,0,1,432.32,317.12Zm5.06,27.6a16,16,0,0,1-6.1-.9c-2.2,5.11-.67,7.46,4.69,7.31A15.17,15.17,0,0,1,437.38,344.71Zm37.5-56.4a17.31,17.31,0,0,1,5.62-4.11c-2-5.4-5-5.89-9-1.49A18.18,18.18,0,0,1,474.88,288.32Zm-37.37,15.32a17,17,0,0,1-1.51-6.38c-5.64-.19-7.26,2.16-5,7.34A16.46,16.46,0,0,1,437.52,303.64Zm10.12,50.84a17,17,0,0,1-6.38,1.51c-.19,5.64,2.16,7.26,7.34,5A16.46,16.46,0,0,1,447.64,354.48Zm12.8-66.35a16.43,16.43,0,0,1,3.31-5.66c-3.94-4-6.8-3.42-8.7,1.87A16.88,16.88,0,0,1,460.44,288.13Zm-13.15,5.25a16,16,0,0,1,.9-6.1c-5.11-2.2-7.46-.67-7.31,4.69A15.17,15.17,0,0,1,447.29,293.38Zm13.83,66.3a17.31,17.31,0,0,1-5.62,4.11c2,5.4,5,5.89,9,1.49A18.18,18.18,0,0,1,461.12,359.68Zm42.75-43.24a16.43,16.43,0,0,1,5.66,3.31c4-3.94,3.42-6.8-1.87-8.7A16.88,16.88,0,0,1,503.87,316.44ZM487.4,287a16.46,16.46,0,0,1,1,6.47,17,17,0,0,1,6.38-1.51C494.94,286.37,492.59,284.75,487.4,287Zm16.28,43.84a17.31,17.31,0,0,1,4.11,5.62c5.4-2,5.89-5,1.49-9A18.18,18.18,0,0,1,503.68,330.88Zm-5.06-27.6a16,16,0,0,1,6.1.9c2.2-5.11.67-7.46-4.69-7.31A15.17,15.17,0,0,1,498.62,303.29Zm-.14,41.08a17,17,0,0,1,1.51,6.38c5.64.19,7.26-2.16,5-7.34A16.46,16.46,0,0,1,498.48,344.36Zm-22.92,15.51a16.43,16.43,0,0,1-3.31,5.66c3.94,4,6.8,3.42,8.7-1.87A16.87,16.87,0,0,1,475.56,359.87Zm13.15-5.25a16,16,0,0,1-.9,6.1c5.11,2.2,7.46.67,7.31-4.69A15.17,15.17,0,0,1,488.71,354.62Z"/><path class="cls-17" d="M433.48,328.15c-4-2.42-4.06-4.85-.11-7.42a13.69,13.69,0,0,0,4.09,3.62A14.06,14.06,0,0,0,433.48,328.15ZM440,312.57a14.42,14.42,0,0,1-2.45-5.26c-4.74.77-5.62,3.1-2.68,7.11A15.15,15.15,0,0,1,440,312.57ZM439.61,336a13.35,13.35,0,0,1-4.84-1.72c-2.63,3.82-1.76,6,2.64,6.74A12.64,12.64,0,0,1,439.61,336Zm39.82-40a14.42,14.42,0,0,1,5.26-2.45c-.77-4.74-3.1-5.62-7.11-2.68A15.15,15.15,0,0,1,479.43,296Zm-33,6.45a14.14,14.14,0,0,1-.2-5.46c-4.57-1.08-6.28.58-5.25,5.19A13.72,13.72,0,0,1,446.4,302.4Zm0,43.2a14.14,14.14,0,0,1-5.46.2c-1.08,4.57.58,6.28,5.19,5.25A13.72,13.72,0,0,1,446.4,345.6Zm21.25-52.15a13.69,13.69,0,0,1,3.62-4.09c-2.57-3.95-5-3.9-7.42.11A14.06,14.06,0,0,1,467.65,293.45ZM456,295.61a13.35,13.35,0,0,1,1.72-4.84c-3.82-2.63-6-1.76-6.74,2.64A12.64,12.64,0,0,1,456,295.61Zm.53,56.44a14.42,14.42,0,0,1-5.26,2.45c.77,4.74,3.1,5.62,7.11,2.68A15.15,15.15,0,0,1,456.57,352Zm42-28.39a13.69,13.69,0,0,1,4.09,3.62c3.94-2.57,3.9-5-.11-7.42A14.06,14.06,0,0,1,498.55,323.65ZM489.87,297a13.72,13.72,0,0,1-.27,5.44,14.14,14.14,0,0,1,5.46-.2C496.14,297.62,494.48,295.92,489.87,297ZM496,335.43a14.42,14.42,0,0,1,2.45,5.26c4.74-.77,5.62-3.1,2.68-7.11A15.15,15.15,0,0,1,496,335.43Zm.35-23.38a13.35,13.35,0,0,1,4.84,1.72c2.63-3.82,1.76-6-2.64-6.74A12.64,12.64,0,0,1,496.39,312ZM489.6,345.6a14.14,14.14,0,0,1,.2,5.46c4.57,1.08,6.28-.58,5.25-5.19A13.72,13.72,0,0,1,489.6,345.6Zm-21.25,8.95a13.7,13.7,0,0,1-3.62,4.09c2.57,3.94,5,3.9,7.42-.11A14.06,14.06,0,0,1,468.35,354.55Zm11.6-2.15a13.35,13.35,0,0,1-1.72,4.84c3.82,2.63,6,1.76,6.74-2.64A12.64,12.64,0,0,1,480,352.39Z"/><path class="cls-18" d="M439.11,321.78c-2.89-2.63-2.53-4.63,1.11-6.08a11.41,11.41,0,0,0,2.75,3.62A11.72,11.72,0,0,0,439.11,321.78Zm7.82-11.67a12,12,0,0,1-1.15-4.7c-4-.14-5.1,1.62-3.35,5.38A12.62,12.62,0,0,1,446.94,310.1Zm-4.09,19.05a11.12,11.12,0,0,1-3.68-2.2c-2.77,2.69-2.41,4.61,1.06,5.94A10.53,10.53,0,0,1,442.85,329.15Zm39-26.22a12,12,0,0,1,4.7-1.15c.14-4-1.62-5.1-5.38-3.35A12.62,12.62,0,0,1,481.9,302.94Zm-28-.1a11.78,11.78,0,0,1,.73-4.5c-3.56-1.62-5.23-.54-5.13,3.39A11.43,11.43,0,0,1,453.85,302.84Zm-7,35.31a11.78,11.78,0,0,1-4.5-.73c-1.62,3.56-.54,5.23,3.39,5.13A11.43,11.43,0,0,1,446.84,338.15ZM472.68,299a11.41,11.41,0,0,1,3.62-2.75c-1.46-3.64-3.45-4-6.08-1.11A11.72,11.72,0,0,1,472.68,299Zm-9.83-.13a11.13,11.13,0,0,1,2.2-3.68c-2.69-2.77-4.61-2.41-5.94,1.06A10.53,10.53,0,0,1,462.85,298.85Zm-8.75,46.21a12,12,0,0,1-4.7,1.15c-.14,4,1.62,5.1,5.38,3.35A12.62,12.62,0,0,1,454.1,345.06ZM493,328.68a11.41,11.41,0,0,1,2.75,3.62c3.64-1.46,4-3.45,1.11-6.08A11.72,11.72,0,0,1,493,328.68Zm-2.75-23.23a11.43,11.43,0,0,1-1.1,4.41,11.78,11.78,0,0,1,4.5.73C495.28,307,494.2,305.35,490.27,305.45Zm-1.21,32.45a12,12,0,0,1,1.15,4.7c4,.14,5.1-1.62,3.35-5.38A12.62,12.62,0,0,1,489.06,337.9Zm4.09-19.05a11.13,11.13,0,0,1,3.68,2.2c2.77-2.69,2.41-4.61-1.06-5.94A10.53,10.53,0,0,1,493.15,318.85Zm-11,26.32a11.78,11.78,0,0,1-.73,4.5c3.56,1.62,5.23.54,5.13-3.39A11.43,11.43,0,0,1,482.15,345.16ZM463.32,349a11.41,11.41,0,0,1-3.62,2.75c1.46,3.64,3.45,4,6.08,1.11A11.72,11.72,0,0,1,463.32,349Zm9.83.13a11.12,11.12,0,0,1-2.2,3.68c2.69,2.77,4.61,2.41,5.94-1.06A10.53,10.53,0,0,1,473.15,349.15Z"/><path class="cls-19" d="M444.75,317.49c-1.93-2.62-1.31-4.19,1.9-4.79a9.51,9.51,0,0,0,1.66,3.41A9.77,9.77,0,0,0,444.75,317.49Zm8.29-8.27a10,10,0,0,1-.17-4c-3.25-.77-4.43.49-3.61,3.85A10.52,10.52,0,0,1,453,309.22Zm-6.44,14.91a9.27,9.27,0,0,1-2.65-2.39c-2.7,1.75-2.72,3.37-.1,5A8.78,8.78,0,0,1,446.61,324.12ZM482.78,309a10,10,0,0,1,4-.17c.77-3.25-.49-4.43-3.85-3.61A10.52,10.52,0,0,1,482.78,309Zm-22.9-4.64a9.82,9.82,0,0,1,1.33-3.56c-2.65-1.91-4.19-1.29-4.75,1.94A9.53,9.53,0,0,1,459.88,304.4ZM448.4,332.12a9.82,9.82,0,0,1-3.56-1.33c-1.91,2.65-1.29,4.19,1.94,4.75A9.53,9.53,0,0,1,448.4,332.12Zm27.49-27.81a9.51,9.51,0,0,1,3.41-1.66c-.6-3.21-2.17-3.83-4.79-1.9A9.77,9.77,0,0,1,475.89,304.31Zm-8-1.7a9.27,9.27,0,0,1,2.39-2.65c-1.75-2.7-3.37-2.72-5-.1A8.78,8.78,0,0,1,467.88,302.61ZM453.22,339a10,10,0,0,1-4,.17c-.77,3.25.49,4.43,3.85,3.61A10.52,10.52,0,0,1,453.22,339Zm34.47-7.06a9.51,9.51,0,0,1,1.66,3.41c3.21-.6,3.83-2.17,1.9-4.79A9.77,9.77,0,0,1,487.69,331.89Zm1.53-19.44a9.53,9.53,0,0,1-1.62,3.42,9.82,9.82,0,0,1,3.56,1.33C493.06,314.56,492.45,313,489.22,312.46ZM483,338.78a10,10,0,0,1,.17,4c3.25.77,4.43-.49,3.61-3.85A10.52,10.52,0,0,1,483,338.78Zm6.44-14.91a9.27,9.27,0,0,1,2.65,2.39c2.7-1.75,2.72-3.37.1-5A8.78,8.78,0,0,1,489.39,323.88ZM476.12,343.6a9.82,9.82,0,0,1-1.33,3.56c2.65,1.91,4.19,1.29,4.75-1.94A9.53,9.53,0,0,1,476.12,343.6Zm-16,.09a9.51,9.51,0,0,1-3.41,1.66c.6,3.21,2.17,3.83,4.79,1.9A9.77,9.77,0,0,1,460.11,343.69Zm8,1.7a9.27,9.27,0,0,1-2.39,2.65c1.75,2.7,3.37,2.72,5,.1A8.78,8.78,0,0,1,468.12,345.39Z"/><path class="cls-20" d="M450.06,314.9c-1.15-2.45-.39-3.64,2.33-3.61a7.92,7.92,0,0,0,.8,3.06A8.14,8.14,0,0,0,450.06,314.9Zm8.12-5.41a8.35,8.35,0,0,1,.51-3.32c-2.53-1.16-3.7-.32-3.58,2.56A8.76,8.76,0,0,1,458.18,309.49Zm-7.68,11.14a7.72,7.72,0,0,1-1.78-2.39c-2.49,1-2.77,2.31-.89,4.09A7.31,7.31,0,0,1,450.5,320.62Zm32-6.44a8.35,8.35,0,0,1,3.32.51c1.16-2.53.32-3.7-2.56-3.58A8.77,8.77,0,0,1,482.51,314.18Zm-18-7.52a8.18,8.18,0,0,1,1.66-2.69c-1.86-2-3.21-1.74-4.19.81A7.94,7.94,0,0,1,464.55,306.66Zm-13.89,20.79a8.18,8.18,0,0,1-2.69-1.66c-2,1.86-1.74,3.21.81,4.19A7.94,7.94,0,0,1,450.66,327.45Zm27-18.26a7.92,7.92,0,0,1,3.06-.8c0-2.72-1.15-3.49-3.61-2.33A8.14,8.14,0,0,1,477.65,309.19Zm-6.28-2.69a7.73,7.73,0,0,1,2.39-1.78c-1-2.49-2.31-2.77-4.09-.89A7.32,7.32,0,0,1,471.38,306.5Zm-17.89,27.32a8.35,8.35,0,0,1-3.32-.51c-1.16,2.53-.32,3.7,2.56,3.58A8.77,8.77,0,0,1,453.49,333.82Zm29.32-.17a7.92,7.92,0,0,1,.8,3.06c2.72,0,3.49-1.15,2.33-3.61A8.14,8.14,0,0,1,482.81,333.65ZM487.22,318a7.94,7.94,0,0,1-1.88,2.53,8.18,8.18,0,0,1,2.69,1.66C490,320.35,489.77,319,487.22,318Zm-9.4,20.5a8.35,8.35,0,0,1-.51,3.32c2.53,1.16,3.7.32,3.58-2.56A8.77,8.77,0,0,1,477.82,338.51Zm7.68-11.14a7.73,7.73,0,0,1,1.78,2.39c2.49-1,2.77-2.31.89-4.09A7.31,7.31,0,0,1,485.5,327.38Zm-14.05,14a8.18,8.18,0,0,1-1.66,2.69c1.86,2,3.21,1.74,4.19-.81A7.94,7.94,0,0,1,471.45,341.34Zm-13.1-2.53a7.93,7.93,0,0,1-3.06.8c0,2.72,1.15,3.49,3.61,2.33A8.14,8.14,0,0,1,458.35,338.81Zm6.28,2.69a7.72,7.72,0,0,1-2.39,1.78c1,2.49,2.31,2.77,4.09.89A7.31,7.31,0,0,1,464.62,341.5Z"/><path class="cls-21" d="M454.82,313.64c-.54-2.19.27-3,2.49-2.57a6.6,6.6,0,0,0,.16,2.63A6.78,6.78,0,0,0,454.82,313.64Zm7.52-3.1a7,7,0,0,1,1-2.63c-1.88-1.36-3-.86-3.34,1.51A7.3,7.3,0,0,1,462.33,310.54Zm-8.09,7.85a6.44,6.44,0,0,1-1.06-2.24c-2.2.41-2.64,1.44-1.4,3.2A6.1,6.1,0,0,1,454.24,318.39Zm27.22-.06a7,7,0,0,1,2.63,1c1.36-1.88.86-3-1.51-3.34A7.3,7.3,0,0,1,481.46,318.33ZM468,309.27a6.82,6.82,0,0,1,1.8-1.93c-1.19-1.93-2.34-1.94-3.56,0A6.62,6.62,0,0,1,468,309.27ZM453.27,324a6.82,6.82,0,0,1-1.93-1.8c-1.93,1.19-1.94,2.34,0,3.56A6.62,6.62,0,0,1,453.27,324Zm25-10.54a6.6,6.6,0,0,1,2.63-.16c.47-2.22-.37-3-2.57-2.49A6.78,6.78,0,0,1,478.3,313.46Zm-4.69-3.22a6.44,6.44,0,0,1,2.24-1.06c-.41-2.2-1.44-2.64-3.2-1.4A6.1,6.1,0,0,1,473.61,310.24Zm-19.07,19.42a7,7,0,0,1-2.63-1c-1.36,1.88-.86,3,1.51,3.34A7.3,7.3,0,0,1,454.54,329.67Zm24,4.63a6.6,6.6,0,0,1,.16,2.63c2.22.47,3-.37,2.49-2.57A6.78,6.78,0,0,1,478.54,334.3Zm6.14-12.06a6.61,6.61,0,0,1-1.95,1.76,6.82,6.82,0,0,1,1.93,1.8C486.59,324.6,486.6,323.45,484.68,322.23Zm-11,15.23a7,7,0,0,1-1,2.63c1.88,1.36,3,.86,3.34-1.51A7.3,7.3,0,0,1,473.67,337.46Zm8.09-7.85a6.44,6.44,0,0,1,1.06,2.24c2.2-.41,2.64-1.44,1.4-3.2A6.1,6.1,0,0,1,481.76,329.61ZM468,338.73a6.82,6.82,0,0,1-1.8,1.93c1.19,1.93,2.34,1.94,3.56,0A6.62,6.62,0,0,1,468,338.73Zm-10.3-4.2a6.6,6.6,0,0,1-2.63.16c-.47,2.22.37,3,2.57,2.49A6.78,6.78,0,0,1,457.7,334.54Zm4.69,3.22a6.44,6.44,0,0,1-2.24,1.06c.41,2.2,1.44,2.64,3.2,1.4A6.1,6.1,0,0,1,462.39,337.76Z"/><path class="cls-22" d="M68.68,723.41C33.6,884.23,116.55,939,256.73,842.48c32.83,167,130.4,185.81,217.72,46.26,92.08,134.78,186.28,115.38,214.54-39.81,130.74,88.25,210.45,34.44,178.42-125.61,160.83,35.08,215.54-47.87,119.08-188,167-32.83,185.81-130.4,46.26-217.72,134.78-92.09,115.37-186.28-39.81-214.54,88.25-130.75,34.44-210.45-125.62-178.42,35.08-160.83-47.87-215.55-188-119.08-32.83-167-130.4-185.81-217.72-46.27C369.47-375.52,275.28-356.12,247-200.93,116.27-289.18,36.56-235.38,68.59-75.32-92.23-110.4-147-27.45-50.48,112.73c-167,32.83-185.81,130.4-46.26,217.72C-231.52,422.53-212.12,516.72-56.94,545-145.18,675.73-91.38,755.44,68.68,723.41Z"/><path class="cls-23" d="M76.69,585.52c-54.82,125.74,4.08,184,134.34,127.9-.31,141.8,76.37,173.07,170.42,73.21C434.81,911.75,514.94,911.21,563.27,789c92.51,93.38,166.41,62.36,166.25-73.66,125.74,54.82,184-4.08,127.89-134.34,141.8.31,173.07-76.37,73.21-170.42,125.13-53.35,124.58-133.49,2.34-181.82,93.38-92.51,62.36-166.41-73.66-166.25,54.82-125.74-4.08-184-134.34-127.89.31-141.81-76.37-173.07-170.42-73.21C501.2-263.75,421.06-263.21,372.73-141c-92.51-93.38-166.41-62.37-166.25,73.66C80.73-122.12,22.52-63.23,78.58,67-63.22,66.72-94.49,143.4,5.37,237.45-119.75,290.81-119.21,370.94,3,419.27-90.35,511.79-59.33,585.68,76.69,585.52Z"/><path class="cls-24" d="M105.66,474.13c-65.25,93.86-26.57,151,89,126.37C171.36,716.35,228.95,754.37,322.05,688,345.32,799,410.9,811.57,470.28,719.52c60.43,91.36,125.87,78,147.85-33.18,93.86,65.25,151,26.57,126.37-89C860.35,620.64,898.37,563.05,832,469.95,943,446.68,955.57,381.1,863.52,321.72c91.37-60.43,78-125.87-33.18-147.85,65.25-93.86,26.57-151-89-126.37C764.64-68.35,707.05-106.37,613.95-40,590.69-151,525.1-163.57,465.72-71.52c-60.43-91.37-125.87-78-147.85,33.18-93.86-65.25-151-26.57-126.37,89C75.65,27.36,37.63,84.95,104,178.05-7,201.31-19.57,266.9,72.48,326.28-18.88,386.71-5.54,452.15,105.66,474.13Z"/><path class="cls-25" d="M147.44,387.8c-68.59,66.11-46.27,119.11,52.2,117.76-37.88,90.9,3,131.33,89.89,92.26,1,94.46,52.54,115.41,116,49.82,34.54,84.5,90.19,84.24,126.24-3.08,66.11,68.59,119.1,46.27,117.76-52.2,90.9,37.88,131.33-3,92.26-89.89,94.46-1,115.41-52.54,49.82-116,84.5-34.54,84.24-90.19-3.08-126.24,68.59-66.11,46.27-119.1-52.2-117.76,37.88-90.9-3-131.33-89.88-92.26-1-94.46-52.54-115.4-116-49.82C495.9-84.13,440.25-83.87,404.2,3.44c-66.11-68.59-119.1-46.27-117.76,52.2-90.9-37.88-131.33,3-92.26,89.89-94.46,1-115.41,52.54-49.82,116C59.87,296.1,60.13,351.75,147.44,387.8Z"/><path class="cls-26" d="M195.63,324c-66.81,42.88-57.18,89.83,23.52,104.73-45.74,68.13-18.89,107.83,58.47,90-14.56,77.36,24.18,102.86,86.73,59.58,14.49,74.68,60,83.51,103.68,18,42.88,66.81,89.82,57.18,104.73-23.52,68.13,45.74,107.83,18.89,90-58.47,77.36,14.56,102.86-24.18,59.58-86.74,74.68-14.49,83.51-60,18-103.68,66.81-42.88,57.18-89.82-23.52-104.73,45.74-68.13,18.89-107.83-58.47-90,14.56-77.36-24.18-102.86-86.74-59.58C557.16-5,511.63-13.87,468,51.63,425.09-15.17,378.15-5.55,363.24,75.15c-68.13-45.74-107.83-18.89-90,58.47-77.36-14.56-102.86,24.18-59.58,86.73C139,234.84,130.13,280.37,195.63,324Z"/><path class="cls-27" d="M245.38,279.74c-61.57,24.19-61.34,64.12,2.2,89.42-48.46,48.25-33,85.06,33.15,83.08-24.48,60.86,3,88,61.2,62.8-.3,63.39,35.48,78,81.81,31.57,24.19,61.57,64.12,61.34,89.42-2.2,48.25,48.46,85.06,33,83.08-33.15,60.86,24.48,88-3,62.8-61.2,63.39.3,78-35.48,31.57-81.81,61.57-24.19,61.34-64.12-2.2-89.42,48.46-48.25,33-85.06-33.15-83.08,24.48-60.86-3-88-61.2-62.8.3-63.39-35.48-78-81.81-31.57-24.19-61.57-64.12-61.34-89.42,2.2-48.25-48.46-85.06-33-83.08,33.15-60.86-24.48-88,3-62.8,61.2C213.56,197.64,198.94,233.41,245.38,279.74Z"/><path class="cls-28" d="M293.24,251.64c-54.26,9.76-60.56,42.44-12.74,73.44-47.45,31.56-40.78,64.16,13.59,73.29-29.9,45.76-11.82,72.42,39.81,61.28-10.55,51.76,16.32,69.53,61.73,39.11,9.76,54.26,42.43,60.56,73.44,12.74,31.56,47.45,64.16,40.78,73.29-13.59,45.76,29.9,72.42,11.82,61.28-39.81,51.76,10.55,69.53-16.32,39.11-61.73,54.26-9.76,60.56-42.43,12.74-73.44,47.45-31.56,40.78-64.16-13.59-73.29,29.9-45.76,11.82-72.42-39.81-61.28,10.55-51.76-16.32-69.53-61.73-39.11C530.61,95,497.93,88.69,466.92,136.5,435.36,89,402.76,95.72,393.63,150.09c-45.76-29.9-72.42-11.82-61.28,39.81C280.59,179.36,262.82,206.22,293.24,251.64Z"/><path class="cls-29" d="M336.93,236.44c-45.93-.85-56.39,24.84-22.36,58-43.91,18.08-43.76,45.81-.81,62.11-31.88,32.54-21.44,57.27,22.58,56.56-17,40.59,2,59.48,44.1,42-.85,45.93,24.84,56.39,58,22.35,18.08,43.91,45.81,43.76,62.11.81,32.54,31.88,57.27,21.44,56.56-22.58,40.59,17,59.48-2,42-44.1,45.93.85,56.39-24.84,22.35-58,43.92-18.08,43.76-45.81.81-62.11,31.88-32.54,21.44-57.27-22.58-56.56,17-40.59-2-59.48-44.1-42,.85-45.93-24.84-56.39-58-22.35-18.08-43.92-45.81-43.76-62.11-.81-32.54-31.88-57.27-21.44-56.56,22.58C338.34,175.31,319.45,194.38,336.93,236.44Z"/><path class="cls-30" d="M375.11,231.13c-37.4-8.16-50.13,11.13-27.69,43.73-38.83,7.64-43.21,30.33-10.76,50.63-31.34,21.42-26.83,43.32,9.26,49.9-20.52,30.41-8,48.94,29.21,41.5-8.16,37.4,11.13,50.13,43.73,27.69,7.64,38.83,30.33,43.21,50.63,10.76,21.42,31.34,43.32,26.83,49.9-9.26,30.41,20.52,48.94,8,41.49-29.21,37.4,8.16,50.13-11.13,27.69-43.73,38.83-7.64,43.21-30.33,10.76-50.63,31.34-21.42,26.83-43.32-9.26-49.9,20.52-30.41,8-48.95-29.21-41.5,8.16-37.4-11.13-50.13-43.73-27.69-7.64-38.83-30.33-43.21-50.63-10.76-21.42-31.34-43.32-26.83-49.9,9.26C386.2,181.39,367.66,193.91,375.11,231.13Z"/><path class="cls-31" d="M407.18,233c-29.24-12.75-42.78.95-29.74,31.24-33-.07-40.25,17.76-17,39.63-29.1,12.41-29,31-.54,42.29-21.72,21.52-14.5,38.7,17.13,38.66-12.75,29.24.95,42.78,31.24,29.74-.07,33,17.76,40.25,39.64,17,12.41,29.1,31,29,42.29.54,21.52,21.72,38.7,14.5,38.66-17.13,29.24,12.75,42.78-.95,29.74-31.24,33,.07,40.25-17.76,17-39.63,29.1-12.41,29-31,.54-42.29,21.72-21.52,14.5-38.7-17.13-38.66,12.75-29.24-.95-42.78-31.24-29.74.07-33-17.76-40.25-39.64-17-12.41-29.1-31-29-42.29-.54C424.33,194.15,407.14,201.36,407.18,233Z"/><path class="cls-32" d="M433.08,239.73c-21.83-15.17-35.12-6.18-29.39,20.7-26.94-5.42-35.78,8-20.36,29.63-25.8,5.41-28.73,20.66-7.32,34.47-21.25,14.05-18.15,29.27,7.72,34.39-15.17,21.83-6.18,35.12,20.7,29.39-5.42,26.94,8,35.78,29.63,20.36,5.41,25.8,20.66,28.73,34.47,7.32,14.05,21.25,29.27,18.15,34.39-7.72,21.83,15.17,35.12,6.18,29.39-20.7,26.94,5.42,35.78-8,20.36-29.63,25.8-5.41,28.73-20.66,7.32-34.47,21.25-14.05,18.15-29.27-7.72-34.39,15.17-21.83,6.18-35.12-20.7-29.39,5.42-26.94-8-35.78-29.63-20.36-5.41-25.8-20.66-28.73-34.47-7.32C453.42,210.77,438.2,213.87,433.08,239.73Z"/><path class="cls-33" d="M453.16,249.45c-15.37-16-27.7-10.76-27.39,12.14-21.14-8.81-30.54.7-21.46,20.9-22,.23-26.84,12.22-11.59,27-19.65,8-19.59,21,.72,29.36-16,15.37-10.76,27.7,12.14,27.39-8.81,21.14.7,30.54,20.9,21.46.23,22,12.22,26.84,27,11.59,8,19.65,21,19.59,29.36-.72,15.37,16,27.7,10.76,27.39-12.14,21.14,8.81,30.54-.7,21.46-20.9,22-.23,26.84-12.22,11.59-27,19.65-8,19.59-21-.72-29.36,16-15.37,10.76-27.7-12.14-27.39,8.81-21.14-.7-30.54-20.9-21.46-.23-22-12.22-26.84-27-11.59C474.49,229.08,461.55,229.14,453.16,249.45Z"/><path class="cls-34" d="M468,260.66c-10-15.54-20.89-13.3-24.36,5.47-15.85-10.64-25.08-4.39-20.94,13.6-18-3.39-23.92,5.62-13.86,20.17-17.37,3.37-19.42,14-4.19,24.11-15.54,10-13.3,20.89,5.47,24.36-10.64,15.85-4.39,25.08,13.6,20.94-3.39,18,5.62,23.92,20.17,13.86,3.37,17.37,14,19.42,24.11,4.19,10,15.54,20.89,13.3,24.36-5.47,15.85,10.64,25.08,4.39,20.94-13.6,18,3.39,23.92-5.62,13.86-20.17,17.37-3.37,19.42-14,4.19-24.11,15.54-10,13.3-20.89-5.47-24.36,10.64-15.85,4.39-25.08-13.6-20.94,3.39-18-5.62-23.92-20.17-13.86C488.73,247.48,478.15,245.42,468,260.66Z"/><path class="cls-35" d="M478.29,272.23c-5.62-14.32-14.91-14.26-20.8.51-11.22-11.27-19.78-7.67-19.32,7.71-14.15-5.69-20.47.71-14.61,14.23-14.74-.07-18.14,8.25-7.34,19-14.32,5.62-14.26,14.91.51,20.8-11.27,11.22-7.67,19.78,7.71,19.32-5.69,14.15.71,20.47,14.23,14.61-.07,14.74,8.25,18.14,19,7.34,5.62,14.32,14.91,14.27,20.8-.51,11.22,11.27,19.78,7.67,19.32-7.71,14.15,5.69,20.47-.71,14.6-14.23,14.74.07,18.14-8.25,7.34-19,14.32-5.62,14.26-14.91-.51-20.8,11.27-11.22,7.67-19.78-7.71-19.32,5.69-14.15-.71-20.47-14.23-14.61C497.39,264.83,489.07,261.43,478.29,272.23Z"/><path class="cls-36" d="M484.83,283.36c-2.27-12.62-9.87-14.08-17.08-3-7.34-11-14.92-9.48-17,3.16-10.64-7-16.84-2.75-14.25,9.26-12-2.45-16.17,3.79-9.09,14.36-12.62,2.27-14.08,9.87-3,17.08-11,7.34-9.48,14.92,3.16,17-7,10.64-2.75,16.84,9.26,14.25-2.45,12,3.79,16.17,14.36,9.09,2.27,12.62,9.87,14.08,17.08,3,7.34,11,14.92,9.48,17-3.16,10.64,7,16.84,2.75,14.25-9.26,12,2.45,16.17-3.79,9.09-14.36,12.62-2.27,14.08-9.87,3-17.08,11-7.34,9.48-14.92-3.16-17,7-10.64,2.75-16.84-9.26-14.25C501.64,280.41,495.39,276.28,484.83,283.36Z"/><path class="cls-37" d="M488.36,293.52c.2-10.68-5.78-13.12-13.48-5.2-4.2-10.21-10.65-10.18-14.45-.19-7.57-7.41-13.32-5-13.15,5.25-9.44-4-13.83.47-9.77,10.26-10.68-.2-13.12,5.78-5.2,13.48-10.21,4.2-10.18,10.65-.19,14.45-7.41,7.57-5,13.32,5.25,13.15-4,9.44.47,13.83,10.26,9.77-.2,10.68,5.78,13.12,13.48,5.2,4.2,10.21,10.65,10.18,14.45.19,7.57,7.41,13.32,5,13.15-5.25,9.44,4,13.83-.47,9.77-10.26,10.68.2,13.12-5.78,5.2-13.48,10.21-4.2,10.18-10.65.19-14.45,7.41-7.57,5-13.32-5.25-13.15C502.58,293.84,498.15,289.45,488.36,293.52Z"/><path class="cls-38" d="M489.6,302.4c1.9-8.7-2.59-11.66-10.17-6.44-1.78-9-7.05-10-11.78-2.5-5-7.29-10.08-6.24-11.6,2.15-7.07-4.77-11.38-1.86-9.65,6.79-8.7-1.9-11.66,2.59-6.44,10.17-9,1.78-10,7.05-2.5,11.78-7.29,5-6.24,10.08,2.15,11.6-4.77,7.07-1.86,11.38,6.79,9.65-1.9,8.7,2.59,11.66,10.17,6.44,1.78,9,7.05,10.05,11.78,2.5,5,7.29,10.08,6.24,11.6-2.15,7.07,4.77,11.38,1.86,9.65-6.79,8.7,1.9,11.66-2.59,6.44-10.17,9-1.78,10.05-7.05,2.5-11.78,7.29-5,6.24-10.08-2.15-11.6C501.17,305,498.26,300.66,489.6,302.4Z"/><path class="cls-39" d="M489.16,309.85c3-6.8-.22-9.95-7.27-6.92,0-7.67-4.13-9.36-9.22-4-2.89-6.77-7.22-6.74-9.83-.13-5-5.05-9-3.37-9,4-6.8-3-9.95.22-6.92,7.27-7.67,0-9.36,4.13-4,9.22-6.77,2.89-6.74,7.22-.13,9.83-5.05,5-3.37,9,4,9-3,6.8.22,9.95,7.27,6.92,0,7.67,4.13,9.36,9.22,4,2.89,6.77,7.22,6.74,9.83.13,5,5.05,9,3.37,9-4,6.8,3,9.95-.22,6.92-7.27,7.67,0,9.36-4.13,4-9.22,6.77-2.89,6.74-7.22.13-9.83C498.2,313.84,496.52,309.85,489.16,309.85Z"/><path class="cls-40" d="M487.6,315.88c3.53-5.08,1.44-8.17-4.81-6.84,1.26-6.27-1.85-8.32-6.89-4.73-1.26-6-4.81-6.68-8-1.7-3.27-4.94-6.81-4.22-8,1.79-5.08-3.53-8.17-1.44-6.84,4.81-6.27-1.26-8.32,1.85-4.73,6.89-6,1.26-6.68,4.81-1.7,8-4.94,3.27-4.22,6.81,1.79,8-3.53,5.08-1.44,8.17,4.81,6.84-1.26,6.27,1.85,8.32,6.89,4.73,1.26,6,4.81,6.68,8,1.7,3.27,4.94,6.81,4.22,8-1.79,5.08,3.53,8.17,1.44,6.84-4.81,6.27,1.26,8.32-1.85,4.73-6.89,6-1.26,6.68-4.81,1.7-8C494.33,320.61,493.61,317.07,487.6,315.88Z"/><path class="cls-41" d="M485.34,320.55c3.71-3.58,2.5-6.44-2.82-6.37,2-4.92-.16-7.1-4.86-5-.05-5.11-2.84-6.24-6.28-2.69-1.87-4.57-4.88-4.56-6.83.17-3.58-3.71-6.44-2.5-6.37,2.82-4.92-2-7.1.16-5,4.86-5.11.05-6.24,2.84-2.69,6.28-4.57,1.87-4.56,4.88.17,6.83-3.71,3.58-2.5,6.44,2.82,6.37-2,4.92.16,7.1,4.86,5,.05,5.11,2.84,6.24,6.28,2.69,1.87,4.57,4.88,4.56,6.83-.17,3.58,3.71,6.44,2.5,6.37-2.82,4.92,2,7.1-.16,5-4.86,5.11-.05,6.24-2.84,2.69-6.28C490.08,325.51,490.06,322.5,485.34,320.55Z"/><path class="cls-42" d="M482.73,324c3.61-2.32,3.09-4.86-1.27-5.66,2.47-3.69,1-5.83-3.16-4.87.79-4.18-1.31-5.56-4.69-3.22-.78-4-3.25-4.52-5.61-1-2.32-3.61-4.86-3.09-5.66,1.27-3.69-2.47-5.83-1-4.87,3.16-4.18-.79-5.56,1.31-3.22,4.69-4,.78-4.52,3.25-1,5.61-3.61,2.32-3.09,4.86,1.27,5.66-2.47,3.69-1,5.83,3.16,4.87-.79,4.18,1.31,5.56,4.69,3.22.78,4,3.25,4.52,5.61,1,2.32,3.61,4.86,3.09,5.66-1.27,3.69,2.47,5.83,1,4.87-3.16,4.18.79,5.56-1.31,3.22-4.69C485.8,328.82,486.27,326.36,482.73,324Z"/><path class="cls-43" d="M68.68,723.41C33.6,884.23,116.55,939,256.73,842.48c32.83,167,130.4,185.81,217.72,46.26,92.08,134.78,186.28,115.38,214.54-39.81,130.74,88.25,210.45,34.44,178.42-125.61,160.83,35.08,215.54-47.87,119.08-188,167-32.83,185.81-130.4,46.26-217.72,134.78-92.09,115.37-186.28-39.81-214.54,88.25-130.75,34.44-210.45-125.62-178.42,35.08-160.83-47.87-215.55-188-119.08-32.83-167-130.4-185.81-217.72-46.27C369.47-375.52,275.28-356.12,247-200.93,116.27-289.18,36.56-235.38,68.59-75.32-92.23-110.4-147-27.45-50.48,112.73c-167,32.83-185.81,130.4-46.26,217.72C-231.52,422.53-212.12,516.72-56.94,545-145.18,675.73-91.38,755.44,68.68,723.41Z"/><path class="cls-44" d="M76.69,585.52c-54.82,125.74,4.08,184,134.34,127.9-.31,141.8,76.37,173.07,170.42,73.21C434.81,911.75,514.94,911.21,563.27,789c92.51,93.38,166.41,62.36,166.25-73.66,125.74,54.82,184-4.08,127.89-134.34,141.8.31,173.07-76.37,73.21-170.42,125.13-53.35,124.58-133.49,2.34-181.82,93.38-92.51,62.36-166.41-73.66-166.25,54.82-125.74-4.08-184-134.34-127.89.31-141.81-76.37-173.07-170.42-73.21C501.2-263.75,421.06-263.21,372.73-141c-92.51-93.38-166.41-62.37-166.25,73.66C80.73-122.12,22.52-63.23,78.58,67-63.22,66.72-94.49,143.4,5.37,237.45-119.75,290.81-119.21,370.94,3,419.27-90.35,511.79-59.33,585.68,76.69,585.52Z"/><path class="cls-45" d="M105.66,474.13c-65.25,93.86-26.57,151,89,126.37C171.36,716.35,228.95,754.37,322.05,688,345.32,799,410.9,811.57,470.28,719.52c60.43,91.36,125.87,78,147.85-33.18,93.86,65.25,151,26.57,126.37-89C860.35,620.64,898.37,563.05,832,469.95,943,446.68,955.57,381.1,863.52,321.72c91.37-60.43,78-125.87-33.18-147.85,65.25-93.86,26.57-151-89-126.37C764.64-68.35,707.05-106.37,613.95-40,590.69-151,525.1-163.57,465.72-71.52c-60.43-91.37-125.87-78-147.85,33.18-93.86-65.25-151-26.57-126.37,89C75.65,27.36,37.63,84.95,104,178.05-7,201.31-19.57,266.9,72.48,326.28-18.88,386.71-5.54,452.15,105.66,474.13Z"/><path class="cls-46" d="M147.44,387.8c-68.59,66.11-46.27,119.11,52.2,117.76-37.88,90.9,3,131.33,89.89,92.26,1,94.46,52.54,115.41,116,49.82,34.54,84.5,90.19,84.24,126.24-3.08,66.11,68.59,119.1,46.27,117.76-52.2,90.9,37.88,131.33-3,92.26-89.89,94.46-1,115.41-52.54,49.82-116,84.5-34.54,84.24-90.19-3.08-126.24,68.59-66.11,46.27-119.1-52.2-117.76,37.88-90.9-3-131.33-89.88-92.26-1-94.46-52.54-115.4-116-49.82C495.9-84.13,440.25-83.87,404.2,3.44c-66.11-68.59-119.1-46.27-117.76,52.2-90.9-37.88-131.33,3-92.26,89.89-94.46,1-115.41,52.54-49.82,116C59.87,296.1,60.13,351.75,147.44,387.8Z"/><path class="cls-47" d="M195.63,324c-66.81,42.88-57.18,89.83,23.52,104.73-45.74,68.13-18.89,107.83,58.47,90-14.56,77.36,24.18,102.86,86.73,59.58,14.49,74.68,60,83.51,103.68,18,42.88,66.81,89.82,57.18,104.73-23.52,68.13,45.74,107.83,18.89,90-58.47,77.36,14.56,102.86-24.18,59.58-86.74,74.68-14.49,83.51-60,18-103.68,66.81-42.88,57.18-89.82-23.52-104.73,45.74-68.13,18.89-107.83-58.47-90,14.56-77.36-24.18-102.86-86.74-59.58C557.16-5,511.63-13.87,468,51.63,425.09-15.17,378.15-5.55,363.24,75.15c-68.13-45.74-107.83-18.89-90,58.47-77.36-14.56-102.86,24.18-59.58,86.73C139,234.84,130.13,280.37,195.63,324Z"/><path class="cls-48" d="M245.38,279.74c-61.57,24.19-61.34,64.12,2.2,89.42-48.46,48.25-33,85.06,33.15,83.08-24.48,60.86,3,88,61.2,62.8-.3,63.39,35.48,78,81.81,31.57,24.19,61.57,64.12,61.34,89.42-2.2,48.25,48.46,85.06,33,83.08-33.15,60.86,24.48,88-3,62.8-61.2,63.39.3,78-35.48,31.57-81.81,61.57-24.19,61.34-64.12-2.2-89.42,48.46-48.25,33-85.06-33.15-83.08,24.48-60.86-3-88-61.2-62.8.3-63.39-35.48-78-81.81-31.57-24.19-61.57-64.12-61.34-89.42,2.2-48.25-48.46-85.06-33-83.08,33.15-60.86-24.48-88,3-62.8,61.2C213.56,197.64,198.94,233.41,245.38,279.74Z"/><path class="cls-49" d="M293.24,251.64c-54.26,9.76-60.56,42.44-12.74,73.44-47.45,31.56-40.78,64.16,13.59,73.29-29.9,45.76-11.82,72.42,39.81,61.28-10.55,51.76,16.32,69.53,61.73,39.11,9.76,54.26,42.43,60.56,73.44,12.74,31.56,47.45,64.16,40.78,73.29-13.59,45.76,29.9,72.42,11.82,61.28-39.81,51.76,10.55,69.53-16.32,39.11-61.73,54.26-9.76,60.56-42.43,12.74-73.44,47.45-31.56,40.78-64.16-13.59-73.29,29.9-45.76,11.82-72.42-39.81-61.28,10.55-51.76-16.32-69.53-61.73-39.11C530.61,95,497.93,88.69,466.92,136.5,435.36,89,402.76,95.72,393.63,150.09c-45.76-29.9-72.42-11.82-61.28,39.81C280.59,179.36,262.82,206.22,293.24,251.64Z"/><path class="cls-50" d="M336.93,236.44c-45.93-.85-56.39,24.84-22.36,58-43.91,18.08-43.76,45.81-.81,62.11-31.88,32.54-21.44,57.27,22.58,56.56-17,40.59,2,59.48,44.1,42-.85,45.93,24.84,56.39,58,22.35,18.08,43.91,45.81,43.76,62.11.81,32.54,31.88,57.27,21.44,56.56-22.58,40.59,17,59.48-2,42-44.1,45.93.85,56.39-24.84,22.35-58,43.92-18.08,43.76-45.81.81-62.11,31.88-32.54,21.44-57.27-22.58-56.56,17-40.59-2-59.48-44.1-42,.85-45.93-24.84-56.39-58-22.35-18.08-43.92-45.81-43.76-62.11-.81-32.54-31.88-57.27-21.44-56.56,22.58C338.34,175.31,319.45,194.38,336.93,236.44Z"/><path class="cls-51" d="M375.11,231.13c-37.4-8.16-50.13,11.13-27.69,43.73-38.83,7.64-43.21,30.33-10.76,50.63-31.34,21.42-26.83,43.32,9.26,49.9-20.52,30.41-8,48.94,29.21,41.5-8.16,37.4,11.13,50.13,43.73,27.69,7.64,38.83,30.33,43.21,50.63,10.76,21.42,31.34,43.32,26.83,49.9-9.26,30.41,20.52,48.94,8,41.49-29.21,37.4,8.16,50.13-11.13,27.69-43.73,38.83-7.64,43.21-30.33,10.76-50.63,31.34-21.42,26.83-43.32-9.26-49.9,20.52-30.41,8-48.95-29.21-41.5,8.16-37.4-11.13-50.13-43.73-27.69-7.64-38.83-30.33-43.21-50.63-10.76-21.42-31.34-43.32-26.83-49.9,9.26C386.2,181.39,367.66,193.91,375.11,231.13Z"/><path class="cls-52" d="M407.18,233c-29.24-12.75-42.78.95-29.74,31.24-33-.07-40.25,17.76-17,39.63-29.1,12.41-29,31-.54,42.29-21.72,21.52-14.5,38.7,17.13,38.66-12.75,29.24.95,42.78,31.24,29.74-.07,33,17.76,40.25,39.64,17,12.41,29.1,31,29,42.29.54,21.52,21.72,38.7,14.5,38.66-17.13,29.24,12.75,42.78-.95,29.74-31.24,33,.07,40.25-17.76,17-39.63,29.1-12.41,29-31,.54-42.29,21.72-21.52,14.5-38.7-17.13-38.66,12.75-29.24-.95-42.78-31.24-29.74.07-33-17.76-40.25-39.64-17-12.41-29.1-31-29-42.29-.54C424.33,194.15,407.14,201.36,407.18,233Z"/><path class="cls-53" d="M433.08,239.73c-21.83-15.17-35.12-6.18-29.39,20.7-26.94-5.42-35.78,8-20.36,29.63-25.8,5.41-28.73,20.66-7.32,34.47-21.25,14.05-18.15,29.27,7.72,34.39-15.17,21.83-6.18,35.12,20.7,29.39-5.42,26.94,8,35.78,29.63,20.36,5.41,25.8,20.66,28.73,34.47,7.32,14.05,21.25,29.27,18.15,34.39-7.72,21.83,15.17,35.12,6.18,29.39-20.7,26.94,5.42,35.78-8,20.36-29.63,25.8-5.41,28.73-20.66,7.32-34.47,21.25-14.05,18.15-29.27-7.72-34.39,15.17-21.83,6.18-35.12-20.7-29.39,5.42-26.94-8-35.78-29.63-20.36-5.41-25.8-20.66-28.73-34.47-7.32C453.42,210.77,438.2,213.87,433.08,239.73Z"/><path class="cls-54" d="M453.16,249.45c-15.37-16-27.7-10.76-27.39,12.14-21.14-8.81-30.54.7-21.46,20.9-22,.23-26.84,12.22-11.59,27-19.65,8-19.59,21,.72,29.36-16,15.37-10.76,27.7,12.14,27.39-8.81,21.14.7,30.54,20.9,21.46.23,22,12.22,26.84,27,11.59,8,19.65,21,19.59,29.36-.72,15.37,16,27.7,10.76,27.39-12.14,21.14,8.81,30.54-.7,21.46-20.9,22-.23,26.84-12.22,11.59-27,19.65-8,19.59-21-.72-29.36,16-15.37,10.76-27.7-12.14-27.39,8.81-21.14-.7-30.54-20.9-21.46-.23-22-12.22-26.84-27-11.59C474.49,229.08,461.55,229.14,453.16,249.45Z"/><path class="cls-55" d="M468,260.66c-10-15.54-20.89-13.3-24.36,5.47-15.85-10.64-25.08-4.39-20.94,13.6-18-3.39-23.92,5.62-13.86,20.17-17.37,3.37-19.42,14-4.19,24.11-15.54,10-13.3,20.89,5.47,24.36-10.64,15.85-4.39,25.08,13.6,20.94-3.39,18,5.62,23.92,20.17,13.86,3.37,17.37,14,19.42,24.11,4.19,10,15.54,20.89,13.3,24.36-5.47,15.85,10.64,25.08,4.39,20.94-13.6,18,3.39,23.92-5.62,13.86-20.17,17.37-3.37,19.42-14,4.19-24.11,15.54-10,13.3-20.89-5.47-24.36,10.64-15.85,4.39-25.08-13.6-20.94,3.39-18-5.62-23.92-20.17-13.86C488.73,247.48,478.15,245.42,468,260.66Z"/><path class="cls-56" d="M478.29,272.23c-5.62-14.32-14.91-14.26-20.8.51-11.22-11.27-19.78-7.67-19.32,7.71-14.15-5.69-20.47.71-14.61,14.23-14.74-.07-18.14,8.25-7.34,19-14.32,5.62-14.26,14.91.51,20.8-11.27,11.22-7.67,19.78,7.71,19.32-5.69,14.15.71,20.47,14.23,14.61-.07,14.74,8.25,18.14,19,7.34,5.62,14.32,14.91,14.27,20.8-.51,11.22,11.27,19.78,7.67,19.32-7.71,14.15,5.69,20.47-.71,14.6-14.23,14.74.07,18.14-8.25,7.34-19,14.32-5.62,14.26-14.91-.51-20.8,11.27-11.22,7.67-19.78-7.71-19.32,5.69-14.15-.71-20.47-14.23-14.61C497.39,264.83,489.07,261.43,478.29,272.23Z"/><path class="cls-57" d="M484.83,283.36c-2.27-12.62-9.87-14.08-17.08-3-7.34-11-14.92-9.48-17,3.16-10.64-7-16.84-2.75-14.25,9.26-12-2.45-16.17,3.79-9.09,14.36-12.62,2.27-14.08,9.87-3,17.08-11,7.34-9.48,14.92,3.16,17-7,10.64-2.75,16.84,9.26,14.25-2.45,12,3.79,16.17,14.36,9.09,2.27,12.62,9.87,14.08,17.08,3,7.34,11,14.92,9.48,17-3.16,10.64,7,16.84,2.75,14.25-9.26,12,2.45,16.17-3.79,9.09-14.36,12.62-2.27,14.08-9.87,3-17.08,11-7.34,9.48-14.92-3.16-17,7-10.64,2.75-16.84-9.26-14.25C501.64,280.41,495.39,276.28,484.83,283.36Z"/><path class="cls-58" d="M488.36,293.52c.2-10.68-5.78-13.12-13.48-5.2-4.2-10.21-10.65-10.18-14.45-.19-7.57-7.41-13.32-5-13.15,5.25-9.44-4-13.83.47-9.77,10.26-10.68-.2-13.12,5.78-5.2,13.48-10.21,4.2-10.18,10.65-.19,14.45-7.41,7.57-5,13.32,5.25,13.15-4,9.44.47,13.83,10.26,9.77-.2,10.68,5.78,13.12,13.48,5.2,4.2,10.21,10.65,10.18,14.45.19,7.57,7.41,13.32,5,13.15-5.25,9.44,4,13.83-.47,9.77-10.26,10.68.2,13.12-5.78,5.2-13.48,10.21-4.2,10.18-10.65.19-14.45,7.41-7.57,5-13.32-5.25-13.15C502.58,293.84,498.15,289.45,488.36,293.52Z"/><path class="cls-59" d="M489.6,302.4c1.9-8.7-2.59-11.66-10.17-6.44-1.78-9-7.05-10-11.78-2.5-5-7.29-10.08-6.24-11.6,2.15-7.07-4.77-11.38-1.86-9.65,6.79-8.7-1.9-11.66,2.59-6.44,10.17-9,1.78-10,7.05-2.5,11.78-7.29,5-6.24,10.08,2.15,11.6-4.77,7.07-1.86,11.38,6.79,9.65-1.9,8.7,2.59,11.66,10.17,6.44,1.78,9,7.05,10.05,11.78,2.5,5,7.29,10.08,6.24,11.6-2.15,7.07,4.77,11.38,1.86,9.65-6.79,8.7,1.9,11.66-2.59,6.44-10.17,9-1.78,10.05-7.05,2.5-11.78,7.29-5,6.24-10.08-2.15-11.6C501.17,305,498.26,300.66,489.6,302.4Z"/><path class="cls-60" d="M489.16,309.85c3-6.8-.22-9.95-7.27-6.92,0-7.67-4.13-9.36-9.22-4-2.89-6.77-7.22-6.74-9.83-.13-5-5.05-9-3.37-9,4-6.8-3-9.95.22-6.92,7.27-7.67,0-9.36,4.13-4,9.22-6.77,2.89-6.74,7.22-.13,9.83-5.05,5-3.37,9,4,9-3,6.8.22,9.95,7.27,6.92,0,7.67,4.13,9.36,9.22,4,2.89,6.77,7.22,6.74,9.83.13,5,5.05,9,3.37,9-4,6.8,3,9.95-.22,6.92-7.27,7.67,0,9.36-4.13,4-9.22,6.77-2.89,6.74-7.22.13-9.83C498.2,313.84,496.52,309.85,489.16,309.85Z"/><path class="cls-61" d="M487.6,315.88c3.53-5.08,1.44-8.17-4.81-6.84,1.26-6.27-1.85-8.32-6.89-4.73-1.26-6-4.81-6.68-8-1.7-3.27-4.94-6.81-4.22-8,1.79-5.08-3.53-8.17-1.44-6.84,4.81-6.27-1.26-8.32,1.85-4.73,6.89-6,1.26-6.68,4.81-1.7,8-4.94,3.27-4.22,6.81,1.79,8-3.53,5.08-1.44,8.17,4.81,6.84-1.26,6.27,1.85,8.32,6.89,4.73,1.26,6,4.81,6.68,8,1.7,3.27,4.94,6.81,4.22,8-1.79,5.08,3.53,8.17,1.44,6.84-4.81,6.27,1.26,8.32-1.85,4.73-6.89,6-1.26,6.68-4.81,1.7-8C494.33,320.61,493.61,317.07,487.6,315.88Z"/><path class="cls-62" d="M485.34,320.55c3.71-3.58,2.5-6.44-2.82-6.37,2-4.92-.16-7.1-4.86-5-.05-5.11-2.84-6.24-6.28-2.69-1.87-4.57-4.88-4.56-6.83.17-3.58-3.71-6.44-2.5-6.37,2.82-4.92-2-7.1.16-5,4.86-5.11.05-6.24,2.84-2.69,6.28-4.57,1.87-4.56,4.88.17,6.83-3.71,3.58-2.5,6.44,2.82,6.37-2,4.92.16,7.1,4.86,5,.05,5.11,2.84,6.24,6.28,2.69,1.87,4.57,4.88,4.56,6.83-.17,3.58,3.71,6.44,2.5,6.37-2.82,4.92,2,7.1-.16,5-4.86,5.11-.05,6.24-2.84,2.69-6.28C490.08,325.51,490.06,322.5,485.34,320.55Z"/><path class="cls-63" d="M482.73,324c3.61-2.32,3.09-4.86-1.27-5.66,2.47-3.69,1-5.83-3.16-4.87.79-4.18-1.31-5.56-4.69-3.22-.78-4-3.25-4.52-5.61-1-2.32-3.61-4.86-3.09-5.66,1.27-3.69-2.47-5.83-1-4.87,3.16-4.18-.79-5.56,1.31-3.22,4.69-4,.78-4.52,3.25-1,5.61-3.61,2.32-3.09,4.86,1.27,5.66-2.47,3.69-1,5.83,3.16,4.87-.79,4.18,1.31,5.56,4.69,3.22.78,4,3.25,4.52,5.61,1,2.32,3.61,4.86,3.09,5.66-1.27,3.69,2.47,5.83,1,4.87-3.16,4.18.79,5.56-1.31,3.22-4.69C485.8,328.82,486.27,326.36,482.73,324Z"/><path class="cls-64" d="M483,324c-15,0-15,0-1.18,5.84C468,324,468,324,478.62,334.62,468,324,468,324,473.85,337.83,468,324,468,324,468,339c0-15,0-15-5.84-1.18C468,324,468,324,457.41,334.62,468,324,468,324,454.19,329.85,468,324,468,324,453,324c15,0,15,0,1.18-5.84C468,324,468,324,457.41,313.41,468,324,468,324,462.17,310.19,468,324,468,324,468,309c0,15,0,15,5.84,1.18C468,324,468,324,478.62,313.41,468,324,468,324,481.83,318.17,468,324,468,324,483,324Z"/><path class="cls-64" d="M482.75,324c3.61-2.32,3.09-4.86-1.27-5.66,2.47-3.69,1-5.83-3.16-4.87.79-4.18-1.31-5.56-4.69-3.22-.78-4-3.25-4.52-5.61-1-2.32-3.61-4.86-3.09-5.66,1.27-3.69-2.47-5.83-1-4.87,3.16-4.18-.79-5.56,1.31-3.22,4.69-4,.78-4.52,3.25-1,5.61-3.61,2.32-3.09,4.86,1.27,5.66-2.47,3.69-1,5.83,3.16,4.87-.79,4.18,1.31,5.56,4.69,3.22.78,4,3.25,4.52,5.61,1,2.32,3.61,4.86,3.09,5.66-1.27,3.69,2.47,5.83,1,4.87-3.16,4.18.79,5.56-1.31,3.22-4.69C485.81,328.84,486.29,326.37,482.75,324Z"/><path class="cls-65" d="M482.75,324c3.61-2.32,3.09-4.86-1.27-5.66,2.47-3.69,1-5.83-3.16-4.87.79-4.18-1.31-5.56-4.69-3.22-.78-4-3.25-4.52-5.61-1-2.32-3.61-4.86-3.09-5.66,1.27-3.69-2.47-5.83-1-4.87,3.16-4.18-.79-5.56,1.31-3.22,4.69-4,.78-4.52,3.25-1,5.61-3.61,2.32-3.09,4.86,1.27,5.66-2.47,3.69-1,5.83,3.16,4.87-.79,4.18,1.31,5.56,4.69,3.22.78,4,3.25,4.52,5.61,1,2.32,3.61,4.86,3.09,5.66-1.27,3.69,2.47,5.83,1,4.87-3.16,4.18.79,5.56-1.31,3.22-4.69C485.81,328.84,486.29,326.37,482.75,324Z"/><path class="cls-66" d="M1002.09,365.12c53.41,48.61,46.72,85.52-20.6,112.43-8.82-20.59-25.62-43.23-50.86-67C962.76,396.84,986.46,381.36,1002.09,365.12ZM857.42,581c14.71,34.19,21.36,63.3,21.18,86.89,73.94,2.67,94.29-29.89,61.88-99.42C919.4,576.53,891.72,581,857.42,581ZM933,228.72c30.09,11.9,52.73,25.73,68,40.61,51.16-49.78,44.61-85.18-19.68-109.74C973.76,180.62,958,204,933,228.72ZM211,713.42c-34.19,14.71-63.3,21.36-86.89,21.18-2.67,73.94,29.9,94.29,99.43,61.88C215.47,775.4,211,747.72,211,713.42Zm518.49,1.89c0,34.67-4.78,62.42-13.44,83.13,65.9,30,96.7,10.05,94.9-62.71C788.61,735.68,761.23,729.13,729.52,715.31ZM859.31,62.48c34.67,0,62.42,4.78,83.13,13.44,30-65.9,10-96.69-62.71-94.9C879.68,3.39,873.13,30.77,859.31,62.48ZM381.46,786.63c-23.77,25.24-46.41,42-67,50.86,26.91,67.32,63.82,74,112.43,20.6C410.64,842.46,395.16,818.76,381.46,786.63ZM563.28,789c-11.9,30.09-25.73,52.72-40.61,68,49.78,51.16,85.18,44.61,109.74-19.67C611.38,829.76,588,814,563.28,789ZM725-65.42c34.19-14.71,63.3-21.36,86.89-21.18,2.66-73.94-29.9-94.29-99.42-61.88C720.53-127.4,725-99.72,725-65.42ZM5.37,237.45c-25.24-23.77-42-46.41-50.86-67-67.32,26.91-74,63.82-20.6,112.43C-50.46,266.63-26.76,251.15,5.37,237.45ZM56.28,667c0-22.37,6.59-49.75,20.42-81.46-34.67,0-62.42-4.78-83.13-13.44C-36.44,638-16.48,668.78,56.28,667ZM78.58,67C63.87,32.84,57.22,3.73,57.4-19.86-16.53-22.52-36.89,10-4.48,79.56,16.6,71.47,44.28,67,78.58,67ZM3,419.27c-30.09-11.9-52.72-25.73-68-40.61-51.16,49.78-44.61,85.18,19.67,109.74C-37.76,467.38-22,444,3,419.27ZM206.48-67.31c0-34.67,4.78-62.42,13.44-83.13-65.9-30-96.7-10-94.9,62.71C147.39-87.68,174.77-81.13,206.48-67.31Zm348.07-71.32c23.77-25.24,46.41-42,67-50.86-26.91-67.32-63.81-74-112.42-20.6C525.37-194.46,540.85-170.76,554.55-138.63ZM372.73-141c11.9-30.09,25.73-52.72,40.61-68-49.78-51.16-85.18-44.61-109.74,19.67C324.63-181.76,348-166,372.73-141Z"/><path class="cls-67" d="M897.84,444.44c35.75,48.41,24.28,77.49-35.12,88.54-3.86-18.26-13.91-39.5-30.67-63C860.54,464,882.43,455.17,897.84,444.44ZM744.5,597.34c6.47,30.33,7.17,55.21,3.18,74.46,60,14.2,81.93-9.1,66.74-71.2C795.88,603.79,772.53,603,744.5,597.34Zm119-275.62c22.66,14.61,38.91,29.6,49,44.25,49.91-32.37,50.31-62.37,1.76-92.89C904.68,289,888,305.55,863.52,321.72ZM194.67,600.5c-30.33,6.47-55.21,7.17-74.46,3.18-14.2,60,9.11,81.93,71.2,66.74C188.22,651.89,189,628.53,194.67,600.5Zm423.47,85.84c-5.6,28.34-14.05,50.24-24.5,65.76,49,35.23,77.4,23.93,87.76-35.83C663.11,712.6,641.8,702.79,618.13,686.34ZM830.34,173.87c28.34,5.6,50.24,14.05,65.76,24.5,35.23-49,23.93-77.39-35.83-87.76C856.6,128.89,846.79,150.2,830.34,173.87ZM322.05,688c-23.53,16.76-44.77,26.81-63,30.67,11,59.4,40.12,70.87,88.54,35.12C336.83,738.43,328,716.53,322.05,688Zm148.23,31.47c-14.62,22.66-29.6,38.91-44.25,49,32.37,49.91,62.37,50.31,92.89,1.76C503,760.67,486.45,744,470.28,719.52Zm271.06-672c30.33-6.47,55.21-7.17,74.46-3.18,14.2-60-9.11-81.93-71.2-66.74C747.79-3.89,747,19.47,741.34,47.5ZM104,178.05c-16.76-23.53-26.81-44.77-30.67-63-59.4,11-70.87,40.13-35.12,88.54C53.57,192.82,75.46,184,104,178.05ZM75.73,537.39c3.67-18.28,13.48-39.59,29.93-63.26-28.34-5.6-50.24-14.05-65.76-24.5C4.67,498.62,16,527,75.73,537.39ZM191.5,50.66C185,20.33,184.33-4.55,188.31-23.8c-60-14.2-81.93,9.1-66.74,71.2C140.12,44.21,163.47,45,191.5,50.66Zm-119,275.61c-22.66-14.62-38.91-29.6-49-44.25-49.91,32.37-50.31,62.37-1.76,92.89C31.33,359,48,342.45,72.48,326.28ZM317.87-38.34c5.6-28.34,14.05-50.24,24.5-65.76-49-35.23-77.4-23.93-87.76,35.83C272.89-64.6,294.2-54.79,317.87-38.34ZM613.95-40c23.53-16.76,44.77-26.81,63-30.67-11-59.4-40.12-70.87-88.54-35.12C599.18-90.43,608-68.54,613.95-40ZM465.72-71.52c14.62-22.66,29.6-38.91,44.25-49-32.37-49.91-62.37-50.31-92.89-1.76C433-112.67,449.55-96,465.72-71.52Z"/><path class="cls-68" d="M799.73,492.32C821.09,537.7,807,559.6,756.64,559c-.19-15.55-4.95-34.55-14.82-56.5C766.07,502.22,785.39,498.59,799.73,492.32Zm-150.18,100c.35,25.84-3.12,46.29-9.5,61.38,46.73,21.36,68.44,5.88,66.12-47.34C690.5,606,671.54,601.52,649.55,592.36ZM791.64,386.44c16.14,15.63,27,30.52,32.84,44.13,46.05-18.34,51.26-42.8,16.54-75.64C830.59,366.42,814.25,377.2,791.64,386.44Zm-592,119.12c-25.84.35-46.29-3.12-61.38-9.5-21.36,46.73-5.88,68.44,47.35,66.12C186,546.5,190.48,527.54,199.65,505.55Zm332.15,139c-9.19,22.25-19.66,38.78-30.72,49.76,34.31,36.76,59.37,32.15,77.55-15C564.29,673.33,548.47,661.85,531.8,644.56ZM788.56,260.2c22.25,9.19,38.78,19.65,49.76,30.72,36.76-34.31,32.14-59.37-15-77.55C817.33,227.71,805.85,243.53,788.56,260.2Zm-499,337.61c-22,9.87-41,14.64-56.5,14.82-.63,50.34,21.27,64.45,66.66,43.1C293.41,641.39,289.78,622.07,289.53,597.81Zm116,49.82c-15.63,16.14-30.52,27-44.13,32.84,18.34,46.05,42.8,51.26,75.64,16.54C425.58,686.59,414.8,670.25,405.56,647.63ZM736.36,142.45c25.84-.35,46.29,3.12,61.38,9.5,21.36-46.73,5.88-68.44-47.34-66.12C750,101.5,745.52,120.46,736.36,142.45Zm-542.17,3.08c-9.87-22-14.64-40.95-14.82-56.5-50.34-.63-64.45,21.27-43.1,66.66C150.61,149.41,169.93,145.78,194.19,145.53ZM112.7,434.63c6-14.34,17.45-30.17,34.75-46.84-22.25-9.19-38.78-19.65-49.76-30.71C60.92,391.39,65.54,416.45,112.7,434.63Zm173.75-379c-.35-25.84,3.12-46.29,9.5-61.38-46.73-21.36-68.44-5.88-66.12,47.34C245.5,42,264.46,46.48,286.45,55.64ZM144.37,261.56c-16.14-15.63-27-30.52-32.84-44.13C65.47,235.77,60.27,260.23,95,293.07,105.41,281.58,121.75,270.8,144.37,261.56ZM404.2,3.44c9.19-22.25,19.65-38.78,30.72-49.76-34.31-36.76-59.37-32.14-77.55,15C371.71-25.33,387.53-13.85,404.2,3.44ZM646.47,50.19c22-9.87,41-14.64,56.5-14.82C703.6-15,681.7-29.08,636.32-7.73,642.59,6.61,646.22,25.93,646.47,50.19ZM530.44.37c15.63-16.14,30.52-27,44.13-32.84C556.23-78.53,531.77-83.73,498.93-49,510.42-38.59,521.2-22.25,530.44.37Z"/><path class="cls-69" d="M711.77,515.5c10.07,40.56-5,56.17-46.06,47.47,2.38-12.74,1.57-29-2.93-48.59C682.65,518.12,699,518.29,711.77,515.5Zm-139,57.35C568.85,594,562.69,610.18,555,621.47c34.72,25.06,55,15.93,61.74-27.95C604,590.64,589.24,583.91,572.76,572.85Zm149.6-145.2C733,443,739.46,457,742,469.05c40.62-7.5,48.85-26.65,25.82-59.13C757.46,417.62,742.35,423.77,722.36,427.65Zm-503.21,1.11C198,424.85,181.82,418.69,170.53,411c-25.05,34.72-15.93,55,27.95,61.74C201.36,460,208.09,445.24,219.15,428.76ZM468,596.37c-11.13,16.69-22.37,28.5-33.19,35.68,22.06,35.62,43.3,35.92,65.83.34C489.91,625.17,478.84,613.21,468,596.37ZM740.37,324c16.7,11.13,28.5,22.37,35.68,33.19,35.62-22.06,35.92-43.29.33-65.82C769.17,302.09,757.21,313.16,740.37,324ZM277.62,518.78c-19.55,4.5-35.85,5.31-48.59,2.93-8.7,41,6.91,56.13,47.47,46.06C273.71,555,273.88,538.65,277.62,518.78Zm86.73,59.58C349,589,335,595.46,322.95,598c7.5,40.62,26.64,48.85,59.13,25.82C374.38,613.45,368.23,598.35,364.35,578.36Zm352.5-359.12c21.18,3.91,37.33,10.07,48.62,17.75,25.05-34.72,15.93-55-27.95-61.74C734.64,188,727.91,202.76,716.85,219.24ZM273.22,133.62c-4.5-19.55-5.31-35.85-2.93-48.59-41-8.7-56.13,6.91-46.06,47.47C237,129.71,253.35,129.88,273.22,133.62Zm-113.6,223c7.21-10.75,19.17-21.82,36-32.63-16.7-11.13-28.5-22.37-35.68-33.19C124.33,312.9,124,334.13,159.62,356.66ZM363.24,75.15C367.15,54,373.31,37.82,381,26.53,346.27,1.48,326,10.6,319.25,54.48,332,57.36,346.76,64.09,363.24,75.15Zm-149.6,145.2C203,205,196.54,191,194,178.95c-40.62,7.5-48.85,26.64-25.82,59.13C178.55,230.38,193.65,224.23,213.64,220.35ZM468,51.63c11.13-16.7,22.37-28.5,33.19-35.68-22.06-35.62-43.3-35.92-65.83-.33C446.09,22.83,457.16,34.79,468,51.63Zm190.41,77.59c19.55-4.5,35.85-5.3,48.59-2.93,8.7-41-6.91-56.13-47.47-46.06C662.3,93,662.12,109.35,658.38,129.22ZM571.65,69.64C587,59,601,52.54,613.05,50c-7.5-40.62-26.64-48.85-59.13-25.82C561.62,34.55,567.77,49.65,571.65,69.64Z"/><path class="cls-70" d="M636.1,520.15c1.64,34.79-13.23,45.09-45.36,31.31,4-10,6-23.48,5.51-40.19C611.88,517.56,625.24,520.36,636.1,520.15ZM513.17,544.42c-6.64,16.67-14.3,28.87-22.41,36.85,24.3,26.12,42.35,22,55-12.8C535.82,564,524.84,556.14,513.17,544.42ZM659,450.07c6.2,14.32,9.2,26.75,9.34,37,34.42.47,44.26-13.84,30.71-44.13C689.36,447.57,676,450.15,659,450.07Zm-411.47-80.9c-16.67-6.64-28.87-14.3-36.85-22.41-26.12,24.3-22,42.35,12.8,55C228,391.82,235.86,380.84,247.58,369.17ZM423.74,546.62c-11.81,11.84-22.92,19.66-32.93,23.76,12.24,32.7,29.55,36.4,53.75,11C436.95,573.71,429.84,562.14,423.74,546.62ZM690.62,368.26c11.84,11.81,19.66,22.92,23.76,32.93,32.7-12.24,36.4-29.55,11-53.75C717.71,355.06,706.14,362.16,690.62,368.26Zm-409.89,84c-16.71.5-30.16-1.49-40.19-5.51-13.78,32.13-3.48,47,31.31,45.36C271.64,481.24,274.44,467.87,280.73,452.25Zm61.2,62.8c-14.32,6.2-26.75,9.2-37,9.34-.47,34.42,13.84,44.26,44.13,30.71C344.43,545.36,341.85,532,341.93,515ZM688.42,278.83c16.67,6.64,28.87,14.3,36.85,22.41,26.12-24.3,22-42.35-12.8-55C708,256.18,700.14,267.16,688.42,278.83ZM339.75,136.73c-.5-16.71,1.49-30.16,5.51-40.19-32.13-13.78-47-3.48-45.36,31.31C310.76,127.64,324.13,130.44,339.75,136.73ZM210.64,300.56c7.64-7.61,19.21-14.72,34.74-20.81-11.84-11.81-19.66-22.92-23.76-32.93C188.91,259.06,185.22,276.36,210.64,300.56Zm212.19-197c6.64-16.67,14.3-28.87,22.41-36.85-24.3-26.12-42.35-22-55,12.8C400.18,84,411.16,91.86,422.83,103.58ZM277,197.93c-6.2-14.32-9.2-26.75-9.34-37-34.42-.47-44.26,13.84-30.71,44.13C246.64,200.43,260,197.85,277,197.93Zm235.3-96.55c11.81-11.84,22.92-19.66,32.93-23.76-12.24-32.7-29.55-36.4-53.75-11C499.06,74.29,506.16,85.86,512.26,101.38Zm143,94.37c16.71-.5,30.16,1.49,40.19,5.51,13.78-32.13,3.48-47-31.31-45.36C664.36,166.76,661.56,180.12,655.27,195.75ZM594.07,133c14.32-6.2,26.75-9.2,37-9.34.47-34.42-13.84-44.26-44.13-30.71C591.57,102.64,594.15,116,594.07,133Z"/><path class="cls-71" d="M573.51,511.65c-4.32,28.7-18.14,34.7-42.17,18.22,4.91-7.54,8.73-18.21,11-32C554.13,505.59,564.59,510.05,573.51,511.65Zm-104.43-.15C460.94,524,452.7,532.77,444.77,538c15.62,25.3,31,24.83,47-1.52C484.4,531.22,476.71,523,469.08,511.5Zm134.57-53.4c2.74,12.71,3.17,23.36,1.61,31.79,28.06,6,38.42-4.11,32.28-31.08C628.83,461,617.5,460.92,603.65,458.1Zm-323.15-133C268,316.94,259.23,308.7,254,300.77c-25.3,15.62-24.83,31,1.52,47C260.78,340.4,269,332.71,280.5,325.08ZM395.64,498.76c-11.58,7.75-21.93,12.34-30.78,14.07,4.69,28.72,18.23,34.55,42.14,17.71C402,523,398.1,512.44,395.64,498.76ZM642.76,396.36c7.75,11.58,12.34,21.93,14.07,30.78,28.72-4.69,34.55-18.23,17.71-42.14C667,390,656.44,393.9,642.76,396.36Zm-348.66,2c-13.74-2.31-24.41-6.12-32-11-16.49,24-10.48,37.85,18.22,42.17C281.95,420.59,286.41,410.12,294.09,398.37Zm39.81,61.28c-12.71,2.74-23.36,3.17-31.79,1.61-6,28.06,4.11,38.42,31.08,32.28C331,484.83,331.08,473.5,333.9,459.65ZM655.5,322.92C668,331.06,676.77,339.3,682,347.23c25.3-15.62,24.83-31-1.52-47C675.22,307.6,667,315.29,655.5,322.92ZM393.63,150.09c2.31-13.74,6.12-24.41,11-32-24-16.49-37.85-10.48-42.17,18.22C371.41,137.95,381.88,142.41,393.63,150.09ZM261.47,263c7.48-5,18.1-8.9,31.78-11.36-7.75-11.58-12.34-21.93-14.07-30.78C250.46,225.55,244.62,239.09,261.47,263ZM466.92,136.5C475.06,124,483.3,115.23,491.23,110c-15.62-25.3-31-24.83-47,1.52C451.6,116.78,459.29,125,466.92,136.5ZM332.35,189.9c-2.74-12.71-3.17-23.36-1.61-31.79-28.06-6-38.42,4.11-32.28,31.08C307.17,187,318.5,187.08,332.35,189.9Zm208-40.66c11.58-7.75,21.93-12.34,30.78-14.07-4.69-28.72-18.23-34.55-42.14-17.71C534,125,537.9,135.56,540.36,149.24ZM641.91,249.63c13.74,2.31,24.41,6.12,32,11,16.49-24,10.48-37.85-18.22-42.17C654.05,227.41,649.59,237.88,641.91,249.63ZM602.1,188.35c12.71-2.74,23.36-3.17,31.79-1.61,6-28.06-4.11-38.42-31.08-32.28C605,163.17,604.92,174.5,602.1,188.35Z"/><path class="cls-72" d="M523.73,494.52c-8.19,22.76-20.47,25.42-37.43,8,5.24-5.37,10.09-13.47,14.21-24.32C508.87,486.42,516.7,491.77,523.73,494.52Zm-85.33-17.1c-8.69,8.93-16.85,14.72-24.17,17.69,8.65,23.22,21.33,25.34,38.69,6.4C447.72,496,442.77,488,438.4,477.42Zm118.67-21.77c.18,10.83-1.2,19.61-3.85,26.25,22,9.45,32.07,2.88,31.43-20.15C577.18,462.11,567.93,460.21,557.07,455.65ZM314.58,294.4c-8.93-8.69-14.72-16.85-17.69-24.17-23.22,8.65-25.34,21.33-6.4,38.69C296,303.72,304,298.77,314.58,294.4Zm65.87,160.67c-10.72,4.46-19.93,6.52-27.44,6.49-.84,24.23,9.28,31.21,31.57,21.32C381.71,476,380.23,466.65,380.44,455.07Zm218.62-43.51c4.46,10.72,6.52,19.93,6.5,27.44,24.23.84,31.2-9.28,21.32-31.57C620,410.29,610.65,411.77,599.07,411.56Zm-285.3-55c-10.85-4.12-19-9-24.32-14.21-17.38,17-14.72,29.23,8,37.43C300.23,372.7,305.58,364.87,313.77,356.51Zm22.58,56.56c-10.83.18-19.61-1.2-26.25-3.85-9.45,22-2.89,32.07,20.15,31.43C329.89,433.18,331.79,423.93,336.35,413.07ZM621.42,353.6c8.93,8.69,14.72,16.85,17.69,24.17,23.22-8.65,25.34-21.33,6.4-38.69C640,344.28,632,349.23,621.42,353.6ZM435.49,169.77c4.12-10.85,9-19,14.21-24.32-17-17.38-29.23-14.72-37.43,8C419.3,156.23,427.13,161.58,435.49,169.77Zm-126.37,70.8c6.93-2.85,16.24-4.34,27.82-4.12-4.46-10.72-6.52-19.93-6.5-27.44C306.2,208.17,299.23,218.28,309.11,240.57Zm188.49-70c8.69-8.93,16.85-14.72,24.17-17.69-8.65-23.22-21.33-25.34-38.69-6.4C488.28,152,493.23,160,497.6,170.58ZM378.93,192.35c-.18-10.83,1.2-19.61,3.85-26.25-22-9.45-32.07-2.89-31.43,20.15C358.82,185.89,368.07,187.79,378.93,192.35Zm176.62.59c10.72-4.46,19.93-6.52,27.44-6.49.84-24.23-9.28-31.21-31.57-21.32C554.29,172,555.77,181.35,555.56,192.93Zm66.68,98.55c10.85,4.12,19,9,24.32,14.21,17.38-17,14.72-29.23-8-37.42C635.77,275.3,630.42,283.13,622.23,291.49Zm-22.58-56.56c10.83-.18,19.61,1.2,26.25,3.85,9.45-22,2.89-32.07-20.15-31.43C606.11,214.82,604.21,224.07,599.65,234.93Z"/><path class="cls-73" d="M485.82,472.43c-10.4,17.27-20.86,17.44-31.9.48,5.16-3.53,10.44-9.37,15.57-17.57C475,463.39,480.53,469,485.82,472.43Zm-67-27.85c-8.56,5.89-16.16,9.29-22.63,10.53,3.3,20.38,13.32,24.18,30.58,11.52C423.45,461.31,420.71,454,418.86,444.58Zm100.53,1.5c-1.62,8.88-4.17,15.83-7.41,20.83,16.41,11.29,25.74,7.57,29-11.36C534.78,454.63,527.53,451.58,519.39,446.08Zm-172-171.22c-5.89-8.56-9.29-16.16-10.53-22.63-20.38,3.3-24.18,13.32-11.52,30.58C330.69,279.46,338,276.71,347.42,274.87Zm27.71,142c-9.49,1.9-17.35,2.09-23.49.85-4.62,19.67,2.51,27,22.33,22.56C372.77,434.17,373.07,426.32,375.13,416.89Zm185.76,0c1.9,9.49,2.09,17.35.85,23.49,19.67,4.62,27-2.51,22.56-22.33C578.17,419.23,570.32,418.93,560.89,416.87ZM336.66,325.5c-8.2-5.13-14-10.42-17.57-15.57-17,11-16.79,21.5.48,31.89C323,336.53,328.61,331,336.66,325.5Zm9.26,49.9c-8.88-1.62-15.83-4.17-20.83-7.41-11.29,16.41-7.57,25.74,11.36,29C337.37,390.78,340.43,383.53,345.92,375.39Zm242.67-2.26c5.89,8.56,9.29,16.16,10.53,22.63,20.38-3.3,24.18-13.32,11.52-30.58C605.31,368.55,598,371.29,588.58,373.14ZM466.5,192.66c5.13-8.2,10.42-14,15.57-17.57-11-17-21.5-16.79-31.89.48C455.47,179,461,184.61,466.5,192.66ZM351.7,230c6.13-1.21,14-.9,23.41,1.15-1.9-9.49-2.09-17.35-.85-23.49C354.59,203,347.25,210.16,351.7,230Zm165.43-26.56c8.56-5.89,16.16-9.29,22.63-10.53-3.3-20.38-13.32-24.18-30.58-11.52C512.55,186.69,515.29,194,517.14,203.42Zm-100.53-1.5c1.62-8.88,4.17-15.83,7.41-20.83-16.41-11.29-25.74-7.57-29,11.36C401.22,193.37,408.47,196.42,416.61,201.92Zm144.26,29.19c9.49-1.9,17.35-2.09,23.49-.85,4.62-19.67-2.51-27-22.33-22.56C563.23,213.83,562.93,221.68,560.87,231.11Zm38.47,91.39c8.2,5.13,14,10.42,17.57,15.57,17-11,16.79-21.5-.48-31.89C613,311.47,607.39,317,599.34,322.5Zm-9.26-49.9c8.88,1.62,15.83,4.17,20.83,7.41,11.29-16.41,7.57-25.74-11.36-29C598.63,257.22,595.58,264.47,590.08,272.61Z"/><path class="cls-74" d="M458.44,448.21c-11.31,12.42-19.89,10.87-26.15-4.79,4.79-2.05,10.05-6,15.58-11.83C451.06,439.07,454.66,444.58,458.44,448.21Zm-50.2-33.65c-8,3.42-14.72,5-20.21,4.93-.62,17.2,7,21.93,23.12,14.39C409.27,429,408.22,422.54,408.24,414.57Zm81.92,17.57c-2.77,7-6,12.26-9.44,15.82,11.58,11.9,19.81,10.37,25.52-4.58C501.35,441.62,495.92,437.95,490.16,432.14ZM377.43,264.24c-3.42-8-5-14.72-4.93-20.21-17.2-.62-21.93,7-14.39,23.12C363,265.27,369.46,264.22,377.43,264.24ZM377,384.82c-8.06,0-14.52-1.11-19.33-3.13-7,15.33-2.34,22.49,14.58,22.07C372.26,398.56,373.78,392.2,377,384.82ZM528.82,415c0,8.06-1.11,14.52-3.13,19.33,15.33,7,22.49,2.34,22.07-14.58C542.56,419.74,536.2,418.22,528.82,415ZM360.41,303.87c-5.87-5.53-9.78-10.79-11.83-15.58-15.66,6.26-17.21,14.84-4.79,26.15C347.42,310.66,352.93,307.06,360.41,303.87Zm-.54,42.29c-7-2.77-12.26-6-15.82-9.44-11.9,11.58-10.37,19.81,4.58,25.52C350.38,357.35,354.05,351.92,359.86,346.16Zm198.7,37.6c3.42,8,5,14.72,4.93,20.21,17.19.62,21.93-7,14.39-23.12C573,382.73,566.54,383.78,558.57,383.76ZM488.13,216.41c5.53-5.87,10.79-9.78,15.58-11.83-6.26-15.66-14.84-17.21-26.15-4.79C481.34,203.42,484.94,208.93,488.13,216.41Zm-99.89,11.84c5.2,0,11.57,1.53,18.94,4.75,0-8.06,1.11-14.52,3.13-19.33C395,206.68,387.82,211.32,388.23,228.25Zm139.53,5.19c8-3.42,14.72-5,20.21-4.93.62-17.2-7-21.93-23.12-14.39C526.73,219,527.78,225.46,527.76,233.43Zm-81.92-17.57c2.77-7,6-12.26,9.44-15.82-11.58-11.9-19.81-10.37-25.52,4.58C434.65,206.38,440.08,210.05,445.84,215.86ZM559,263.18c8.06,0,14.52,1.11,19.33,3.13,7-15.33,2.34-22.49-14.59-22.07C563.74,249.44,562.22,255.8,559,263.18Zm16.59,81c5.87,5.53,9.78,10.79,11.83,15.58,15.66-6.26,17.21-14.84,4.79-26.15C588.58,337.34,583.07,340.94,575.59,344.13Zm.54-42.29c7,2.77,12.26,6,15.82,9.44,11.9-11.58,10.37-19.81-4.58-25.52C585.62,290.66,581.95,296.08,576.14,301.84Z"/><path class="cls-75" d="M440,424c-11.26,8.32-18,5.65-20.59-8.17,4.25-.9,9.19-3.24,14.66-7.13C435.45,415.29,437.49,420.38,440,424Zm-35.56-35.66c-7.05,1.5-12.84,1.67-17.32.74-3.3,14,2.12,19.05,16.56,15.52C402.93,400.26,403.12,394.82,404.43,388.31ZM468.53,416c-3.4,5.27-6.88,9-10.29,11.39,7.53,11.61,14.5,11.7,21.6.41C476.13,425.56,472.29,421.67,468.53,416ZM403.69,260.43c-1.5-7.05-1.67-12.84-.74-17.32-14-3.3-19.05,2.12-15.52,16.56C391.74,258.93,397.18,259.12,403.69,260.43Zm-20,98.49c-6.59-1.3-11.68-3.27-15.29-5.7-8.19,11.39-5.57,18,8.33,20.41C377.62,369.38,379.91,364.42,383.73,358.92Zm119.18,49.35c-1.3,6.59-3.27,11.69-5.7,15.29,11.39,8.19,18,5.57,20.41-8.33C513.38,414.38,508.42,412.09,502.92,408.27ZM383.34,290.06c-3.9-5.47-6.24-10.41-7.13-14.66C362.39,278,359.72,284.73,368,296,371.62,293.49,376.71,291.45,383.34,290.06ZM376,324.53c-5.27-3.4-9-6.88-11.39-10.29-11.61,7.53-11.7,14.5-.41,21.6C366.44,332.13,370.33,328.29,376,324.53Zm156.29,63c1.5,7.05,1.67,12.84.74,17.32,14,3.3,19.05-2.12,15.52-16.56C544.26,389.07,538.82,388.88,532.31,387.57ZM501.94,239.33c5.47-3.9,10.41-6.24,14.66-7.13C514,218.39,507.27,215.72,496,224,498.51,227.62,500.55,232.71,501.94,239.33Zm-83.57-6.56c4.25.85,9.21,3.13,14.71,7,1.3-6.59,3.27-11.69,5.7-15.29C427.39,216.24,420.78,218.87,418.37,232.77Zm113.2,26.92c7.05-1.5,12.84-1.67,17.32-.74,3.3-14-2.12-19.05-16.56-15.52C533.07,247.74,532.88,253.18,531.57,259.69ZM467.47,232c3.4-5.27,6.88-9,10.29-11.39-7.53-11.61-14.5-11.7-21.6-.41C459.87,222.44,463.71,226.33,467.47,232Zm84.8,57.07c6.59,1.3,11.69,3.27,15.29,5.7,8.19-11.39,5.57-18-8.33-20.41C558.38,278.62,556.09,283.58,552.27,289.08Zm.4,68.86c3.9,5.47,6.24,10.41,7.13,14.66C573.61,370,576.28,363.27,568,352,564.38,354.51,559.29,356.55,552.67,357.94ZM560,323.47c5.27,3.4,9,6.88,11.39,10.29,11.61-7.53,11.7-14.5.41-21.6C569.56,315.87,565.67,319.71,560,323.47Z"/><path class="cls-76" d="M428.85,401.15c-10.55,5-15.65,1.69-15.5-10,3.62,0,8-1.15,13.14-3.45C426.55,393.32,427.4,397.82,428.85,401.15Zm-23.27-34.93c-6,.08-10.77-.72-14.27-2.21-5,10.87-1.37,15.92,11,15.38A37.69,37.69,0,0,1,405.59,366.22Zm47.89,33a33.21,33.21,0,0,1-10.26,7.64c4.27,10.71,10,11.92,17.59,3.85C458.14,408.33,455.63,404.53,453.48,399.27Zm-27.7-137.68c-.08-6,.72-10.77,2.21-14.27-10.87-5-15.92-1.37-15.38,11A37.69,37.69,0,0,1,425.78,261.59Zm-32.33,77.25c-5.18-2.14-9-4.57-11.57-7.14-8.55,8-7.48,13.81,3.49,18C386.76,346.39,389.43,342.71,393.45,338.84Zm89.39,59.71c-2.14,5.18-4.57,9-7.14,11.57,8,8.55,13.81,7.48,18-3.49C490.39,405.24,486.71,402.57,482.84,398.55ZM404.32,282.49c-2.3-5.11-3.4-9.52-3.45-13.14-11.71-.15-15,4.95-10,15.5C394.18,283.4,398.68,282.55,404.32,282.49Zm-11.59,27a33.22,33.22,0,0,1-7.64-10.26c-10.71,4.27-11.92,10-3.85,17.59C383.67,314.14,387.47,311.63,392.73,309.48Zm117.49,76.93c.08,6-.72,10.77-2.21,14.27,10.87,5,15.92,1.37,15.38-11A37.69,37.69,0,0,1,510.22,386.41Zm-.72-126.09c5.11-2.3,9.52-3.4,13.14-3.45.15-11.71-4.95-15-15.5-10C508.6,250.18,509.45,254.68,509.51,260.32Zm-67.24-19c3.34,1.39,7,4.06,10.89,8.08,2.14-5.18,4.57-9,7.14-11.57C452.33,229.33,446.5,230.4,442.27,241.37Zm88.14,40.41c6-.08,10.77.72,14.27,2.21,5-10.87,1.37-15.92-11-15.38A37.69,37.69,0,0,1,530.41,281.78Zm-47.89-33a33.22,33.22,0,0,1,10.26-7.64c-4.27-10.71-10-11.92-17.59-3.85C477.86,239.67,480.37,243.47,482.52,248.73Zm60,60.43c5.18,2.14,9,4.57,11.57,7.14,8.55-8,7.48-13.81-3.49-18C549.24,301.61,546.57,305.29,542.55,309.16Zm-10.87,56.34c2.3,5.11,3.4,9.52,3.45,13.14,11.71.15,15-4.95,10-15.5C541.82,364.6,537.32,365.45,531.68,365.51Zm11.59-27a33.21,33.21,0,0,1,7.64,10.26c10.71-4.27,11.92-10,3.85-17.59C552.33,333.87,548.53,336.37,543.27,338.52Z"/><path class="cls-77" d="M423.46,380.69c-9.43,2.34-13.06-1.17-11-10.71a28.39,28.39,0,0,0,11.3-.68A29.16,29.16,0,0,0,423.46,380.69Zm-13.34-32.33a29.9,29.9,0,0,1-11.31-4.13c-5.83,8.07-3.71,12.79,6.5,14.36A31.41,31.41,0,0,1,410.13,348.36Zm33.77,34.79a27.68,27.68,0,0,1-9.63,4.57c1.75,9.45,6.2,11.36,13.75,6C446.23,391.32,444.8,387.8,443.89,383.16Zm-.26-117a29.9,29.9,0,0,1,4.13-11.31c-8.07-5.83-12.79-3.71-14.36,6.5A31.41,31.41,0,0,1,443.64,266.13Zm-39,57.88a29.32,29.32,0,0,1-8.3-7.72c-8.28,5.13-8.35,10.07-.08,15.31A28.45,28.45,0,0,1,404.66,324ZM468,387.34a29.32,29.32,0,0,1-7.72,8.3c5.13,8.28,10.07,8.35,15.31.08A28.45,28.45,0,0,1,468,387.34ZM422.7,279.72a28.4,28.4,0,0,1-.68-11.3c-9.55-2-13.05,1.61-10.71,11A29.16,29.16,0,0,1,422.7,279.72Zm-13.86,20.17a27.69,27.69,0,0,1-4.57-9.63c-9.45,1.74-11.36,6.2-6,13.75C400.68,302.23,404.2,300.8,408.84,299.89Zm83.52,82a29.9,29.9,0,0,1-4.13,11.31c8.07,5.83,12.79,3.71,14.36-6.5A31.41,31.41,0,0,1,492.36,381.87ZM512.28,278.7a28.39,28.39,0,0,1,11.3-.68c2-9.55-1.61-13.05-11-10.71A29.16,29.16,0,0,1,512.28,278.7ZM460.4,252.28a28.44,28.44,0,0,1,7.59,8.38,29.32,29.32,0,0,1,7.72-8.3C470.58,244.07,465.64,244,460.4,252.28Zm65.47,47.36a29.9,29.9,0,0,1,11.31,4.13c5.83-8.07,3.71-12.79-6.5-14.36A31.41,31.41,0,0,1,525.87,299.64Zm-33.77-34.79a27.69,27.69,0,0,1,9.63-4.57c-1.74-9.45-6.2-11.36-13.75-6C489.77,256.68,491.2,260.2,492.11,264.84ZM531.34,324a29.32,29.32,0,0,1,8.3,7.72c8.28-5.13,8.35-10.07.08-15.31A28.45,28.45,0,0,1,531.34,324Zm-18,44.28a28.4,28.4,0,0,1,.68,11.3c9.55,2,13.05-1.61,10.71-11A29.16,29.16,0,0,1,513.3,368.28Zm13.86-20.17a27.68,27.68,0,0,1,4.57,9.63c9.45-1.75,11.36-6.2,6-13.75C535.32,345.77,531.8,347.2,527.16,348.11Z"/><path class="cls-78" d="M422.38,363.1c-8.09.38-10.49-3.08-7.28-10.55a23.66,23.66,0,0,0,9.35,1.28A24.3,24.3,0,0,0,422.38,363.1Zm-5.64-28.59a24.92,24.92,0,0,1-8.57-5.21c-6.08,5.65-5.11,9.85,3,12.79A26.17,26.17,0,0,1,416.74,334.5Zm21.94,33.93a23.06,23.06,0,0,1-8.61,2.17c-.11,8,3.22,10.29,10.26,7.14A21.84,21.84,0,0,1,438.68,368.43Zm18.81-95.69a24.92,24.92,0,0,1,5.21-8.57c-5.65-6.08-9.85-5.11-12.79,3A26.17,26.17,0,0,1,457.5,272.74Zm-41.27,41A24.43,24.43,0,0,1,410.7,306c-7.61,2.85-8.47,6.87-2.55,12.5A23.71,23.71,0,0,1,416.23,313.71Zm41.48,62.07A24.43,24.43,0,0,1,450,381.3c2.85,7.61,6.87,8.47,12.5,2.55A23.71,23.71,0,0,1,457.71,375.77Zm-19.53-95.33a23.66,23.66,0,0,1,1.28-9.35c-7.47-3.21-10.93-.81-10.55,7.28A24.3,24.3,0,0,1,438.17,280.45Zm-14.61,14.23a23.07,23.07,0,0,1-2.17-8.61c-8-.11-10.29,3.22-7.14,10.26A21.84,21.84,0,0,1,423.57,294.68Zm54.94,80.58a24.92,24.92,0,0,1-5.21,8.57c5.65,6.07,9.85,5.11,12.79-3A26.17,26.17,0,0,1,478.5,375.26Zm33-81.09a23.66,23.66,0,0,1,9.35,1.28c3.2-7.47.81-10.93-7.28-10.55A24.3,24.3,0,0,1,511.55,294.17Zm-38.1-30a23.7,23.7,0,0,1,4.84,8.08A24.44,24.44,0,0,1,486,266.7C483.1,259.09,479.08,258.23,473.45,264.15Zm45.81,49.35a24.92,24.92,0,0,1,8.57,5.21c6.07-5.65,5.11-9.85-3-12.79A26.17,26.17,0,0,1,519.26,313.5Zm-21.94-33.93a23.07,23.07,0,0,1,8.61-2.17c.11-8-3.22-10.29-10.26-7.14A21.84,21.84,0,0,1,497.32,279.57Zm22.45,54.72A24.43,24.43,0,0,1,525.3,342c7.61-2.85,8.47-6.87,2.55-12.5A23.71,23.71,0,0,1,519.77,334.29Zm-21.95,33.26a23.67,23.67,0,0,1-1.28,9.35c7.47,3.2,10.93.81,10.55-7.28A24.3,24.3,0,0,1,497.83,367.55Zm14.6-14.23a23.07,23.07,0,0,1,2.17,8.61c8,.11,10.29-3.22,7.14-10.26A21.84,21.84,0,0,1,512.43,353.32Z"/><path class="cls-79" d="M424.36,348.54c-6.68-1-8.07-4.22-4.24-9.81a19.72,19.72,0,0,0,7.43,2.57A20.25,20.25,0,0,0,424.36,348.54Zm0-24.29a20.77,20.77,0,0,1-6.16-5.65c-5.88,3.63-5.78,7.22.35,10.94A21.81,21.81,0,0,1,424.39,324.25Zm12.42,31.3a19.22,19.22,0,0,1-7.39.38c-1.39,6.53,1,8.94,7.23,7.51A18.2,18.2,0,0,1,436.81,355.55Zm30.94-75.15a20.77,20.77,0,0,1,5.65-6.16c-3.63-5.88-7.22-5.78-10.94.35A21.81,21.81,0,0,1,467.75,280.39Zm-40.39,26.78a20.36,20.36,0,0,1-3.27-7.16c-6.68,1.09-8,4.24-4.12,9.8A19.75,19.75,0,0,1,427.36,307.17Zm23.81,57.47a20.36,20.36,0,0,1-7.16,3.27c1.09,6.68,4.24,8,9.8,4.12A19.76,19.76,0,0,1,451.17,364.64Zm-.47-81.09a19.72,19.72,0,0,1,2.57-7.43c-5.59-3.83-8.8-2.44-9.81,4.24A20.25,20.25,0,0,1,450.7,283.55Zm-14.25,9.26a19.23,19.23,0,0,1-.38-7.39c-6.52-1.39-8.94,1-7.51,7.23A18.2,18.2,0,0,1,436.45,292.81Zm31.8,74.79a20.77,20.77,0,0,1-5.65,6.16c3.63,5.88,7.22,5.78,10.94-.35A21.81,21.81,0,0,1,468.25,367.61Zm40.19-60.9a19.72,19.72,0,0,1,7.43,2.57c3.83-5.59,2.44-8.8-4.24-9.81A20.25,20.25,0,0,1,508.45,306.7ZM482.19,276a19.75,19.75,0,0,1,2.64,7.39,20.36,20.36,0,0,1,7.16-3.27C490.9,273.41,487.75,272,482.19,276Zm29.42,47.78a20.77,20.77,0,0,1,6.16,5.65c5.88-3.63,5.78-7.22-.35-10.94A21.81,21.81,0,0,1,511.61,323.75Zm-12.42-31.3a19.23,19.23,0,0,1,7.39-.38c1.39-6.52-1-8.94-7.23-7.51A18.2,18.2,0,0,1,499.19,292.45Zm9.46,48.38a20.36,20.36,0,0,1,3.27,7.16c6.68-1.09,8-4.24,4.12-9.8A19.75,19.75,0,0,1,508.64,340.83ZM485.3,364.45a19.72,19.72,0,0,1-2.57,7.43c5.59,3.83,8.8,2.44,9.81-4.24A20.25,20.25,0,0,1,485.3,364.45Zm14.25-9.26a19.22,19.22,0,0,1,.38,7.39c6.53,1.39,8.94-1,7.51-7.23A18.2,18.2,0,0,1,499.55,355.19Z"/><path class="cls-80" d="M428.34,337c-5.29-1.91-5.91-4.76-1.87-8.7a16.43,16.43,0,0,0,5.66,3.31A16.88,16.88,0,0,0,428.34,337Zm4-19.84a17.3,17.3,0,0,1-4.11-5.62c-5.4,2-5.89,5-1.49,9A18.17,18.17,0,0,1,432.32,317.12Zm5.06,27.6a16,16,0,0,1-6.1-.9c-2.2,5.11-.67,7.46,4.69,7.31A15.17,15.17,0,0,1,437.38,344.71Zm37.5-56.4a17.31,17.31,0,0,1,5.62-4.11c-2-5.4-5-5.89-9-1.49A18.18,18.18,0,0,1,474.88,288.32Zm-37.37,15.32a17,17,0,0,1-1.51-6.38c-5.64-.19-7.26,2.16-5,7.34A16.46,16.46,0,0,1,437.52,303.64Zm10.12,50.84a17,17,0,0,1-6.38,1.51c-.19,5.64,2.16,7.26,7.34,5A16.46,16.46,0,0,1,447.64,354.48Zm12.8-66.35a16.43,16.43,0,0,1,3.31-5.66c-3.94-4-6.8-3.42-8.7,1.87A16.88,16.88,0,0,1,460.44,288.13Zm-13.15,5.25a16,16,0,0,1,.9-6.1c-5.11-2.2-7.46-.67-7.31,4.69A15.17,15.17,0,0,1,447.29,293.38Zm13.83,66.3a17.31,17.31,0,0,1-5.62,4.11c2,5.4,5,5.89,9,1.49A18.18,18.18,0,0,1,461.12,359.68Zm42.75-43.24a16.43,16.43,0,0,1,5.66,3.31c4-3.94,3.42-6.8-1.87-8.7A16.88,16.88,0,0,1,503.87,316.44ZM487.4,287a16.46,16.46,0,0,1,1,6.47,17,17,0,0,1,6.38-1.51C494.94,286.37,492.59,284.75,487.4,287Zm16.28,43.84a17.31,17.31,0,0,1,4.11,5.62c5.4-2,5.89-5,1.49-9A18.18,18.18,0,0,1,503.68,330.88Zm-5.06-27.6a16,16,0,0,1,6.1.9c2.2-5.11.67-7.46-4.69-7.31A15.17,15.17,0,0,1,498.62,303.29Zm-.14,41.08a17,17,0,0,1,1.51,6.38c5.64.19,7.26-2.16,5-7.34A16.46,16.46,0,0,1,498.48,344.36Zm-22.92,15.51a16.43,16.43,0,0,1-3.31,5.66c3.94,4,6.8,3.42,8.7-1.87A16.87,16.87,0,0,1,475.56,359.87Zm13.15-5.25a16,16,0,0,1-.9,6.1c5.11,2.2,7.46.67,7.31-4.69A15.17,15.17,0,0,1,488.71,354.62Z"/><path class="cls-81" d="M433.48,328.15c-4-2.42-4.06-4.85-.11-7.42a13.69,13.69,0,0,0,4.09,3.62A14.06,14.06,0,0,0,433.48,328.15ZM440,312.57a14.42,14.42,0,0,1-2.45-5.26c-4.74.77-5.62,3.1-2.68,7.11A15.15,15.15,0,0,1,440,312.57ZM439.61,336a13.35,13.35,0,0,1-4.84-1.72c-2.63,3.82-1.76,6,2.64,6.74A12.64,12.64,0,0,1,439.61,336Zm39.82-40a14.42,14.42,0,0,1,5.26-2.45c-.77-4.74-3.1-5.62-7.11-2.68A15.15,15.15,0,0,1,479.43,296Zm-33,6.45a14.14,14.14,0,0,1-.2-5.46c-4.57-1.08-6.28.58-5.25,5.19A13.72,13.72,0,0,1,446.4,302.4Zm0,43.2a14.14,14.14,0,0,1-5.46.2c-1.08,4.57.58,6.28,5.19,5.25A13.72,13.72,0,0,1,446.4,345.6Zm21.25-52.15a13.69,13.69,0,0,1,3.62-4.09c-2.57-3.95-5-3.9-7.42.11A14.06,14.06,0,0,1,467.65,293.45ZM456,295.61a13.35,13.35,0,0,1,1.72-4.84c-3.82-2.63-6-1.76-6.74,2.64A12.64,12.64,0,0,1,456,295.61Zm.53,56.44a14.42,14.42,0,0,1-5.26,2.45c.77,4.74,3.1,5.62,7.11,2.68A15.15,15.15,0,0,1,456.57,352Zm42-28.39a13.69,13.69,0,0,1,4.09,3.62c3.94-2.57,3.9-5-.11-7.42A14.06,14.06,0,0,1,498.55,323.65ZM489.87,297a13.72,13.72,0,0,1-.27,5.44,14.14,14.14,0,0,1,5.46-.2C496.14,297.62,494.48,295.92,489.87,297ZM496,335.43a14.42,14.42,0,0,1,2.45,5.26c4.74-.77,5.62-3.1,2.68-7.11A15.15,15.15,0,0,1,496,335.43Zm.35-23.38a13.35,13.35,0,0,1,4.84,1.72c2.63-3.82,1.76-6-2.64-6.74A12.64,12.64,0,0,1,496.39,312ZM489.6,345.6a14.14,14.14,0,0,1,.2,5.46c4.57,1.08,6.28-.58,5.25-5.19A13.72,13.72,0,0,1,489.6,345.6Zm-21.25,8.95a13.7,13.7,0,0,1-3.62,4.09c2.57,3.94,5,3.9,7.42-.11A14.06,14.06,0,0,1,468.35,354.55Zm11.6-2.15a13.35,13.35,0,0,1-1.72,4.84c3.82,2.63,6,1.76,6.74-2.64A12.64,12.64,0,0,1,480,352.39Z"/><path class="cls-82" d="M439.11,321.78c-2.89-2.63-2.53-4.63,1.11-6.08a11.41,11.41,0,0,0,2.75,3.62A11.72,11.72,0,0,0,439.11,321.78Zm7.82-11.67a12,12,0,0,1-1.15-4.7c-4-.14-5.1,1.62-3.35,5.38A12.62,12.62,0,0,1,446.94,310.1Zm-4.09,19.05a11.12,11.12,0,0,1-3.68-2.2c-2.77,2.69-2.41,4.61,1.06,5.94A10.53,10.53,0,0,1,442.85,329.15Zm39-26.22a12,12,0,0,1,4.7-1.15c.14-4-1.62-5.1-5.38-3.35A12.62,12.62,0,0,1,481.9,302.94Zm-28-.1a11.78,11.78,0,0,1,.73-4.5c-3.56-1.62-5.23-.54-5.13,3.39A11.43,11.43,0,0,1,453.85,302.84Zm-7,35.31a11.78,11.78,0,0,1-4.5-.73c-1.62,3.56-.54,5.23,3.39,5.13A11.43,11.43,0,0,1,446.84,338.15ZM472.68,299a11.41,11.41,0,0,1,3.62-2.75c-1.46-3.64-3.45-4-6.08-1.11A11.72,11.72,0,0,1,472.68,299Zm-9.83-.13a11.13,11.13,0,0,1,2.2-3.68c-2.69-2.77-4.61-2.41-5.94,1.06A10.53,10.53,0,0,1,462.85,298.85Zm-8.75,46.21a12,12,0,0,1-4.7,1.15c-.14,4,1.62,5.1,5.38,3.35A12.62,12.62,0,0,1,454.1,345.06ZM493,328.68a11.41,11.41,0,0,1,2.75,3.62c3.64-1.46,4-3.45,1.11-6.08A11.72,11.72,0,0,1,493,328.68Zm-2.75-23.23a11.43,11.43,0,0,1-1.1,4.41,11.78,11.78,0,0,1,4.5.73C495.28,307,494.2,305.35,490.27,305.45Zm-1.21,32.45a12,12,0,0,1,1.15,4.7c4,.14,5.1-1.62,3.35-5.38A12.62,12.62,0,0,1,489.06,337.9Zm4.09-19.05a11.13,11.13,0,0,1,3.68,2.2c2.77-2.69,2.41-4.61-1.06-5.94A10.53,10.53,0,0,1,493.15,318.85Zm-11,26.32a11.78,11.78,0,0,1-.73,4.5c3.56,1.62,5.23.54,5.13-3.39A11.43,11.43,0,0,1,482.15,345.16ZM463.32,349a11.41,11.41,0,0,1-3.62,2.75c1.46,3.64,3.45,4,6.08,1.11A11.72,11.72,0,0,1,463.32,349Zm9.83.13a11.12,11.12,0,0,1-2.2,3.68c2.69,2.77,4.61,2.41,5.94-1.06A10.53,10.53,0,0,1,473.15,349.15Z"/><path class="cls-83" d="M444.75,317.49c-1.93-2.62-1.31-4.19,1.9-4.79a9.51,9.51,0,0,0,1.66,3.41A9.77,9.77,0,0,0,444.75,317.49Zm8.29-8.27a10,10,0,0,1-.17-4c-3.25-.77-4.43.49-3.61,3.85A10.52,10.52,0,0,1,453,309.22Zm-6.44,14.91a9.27,9.27,0,0,1-2.65-2.39c-2.7,1.75-2.72,3.37-.1,5A8.78,8.78,0,0,1,446.61,324.12ZM482.78,309a10,10,0,0,1,4-.17c.77-3.25-.49-4.43-3.85-3.61A10.52,10.52,0,0,1,482.78,309Zm-22.9-4.64a9.82,9.82,0,0,1,1.33-3.56c-2.65-1.91-4.19-1.29-4.75,1.94A9.53,9.53,0,0,1,459.88,304.4ZM448.4,332.12a9.82,9.82,0,0,1-3.56-1.33c-1.91,2.65-1.29,4.19,1.94,4.75A9.53,9.53,0,0,1,448.4,332.12Zm27.49-27.81a9.51,9.51,0,0,1,3.41-1.66c-.6-3.21-2.17-3.83-4.79-1.9A9.77,9.77,0,0,1,475.89,304.31Zm-8-1.7a9.27,9.27,0,0,1,2.39-2.65c-1.75-2.7-3.37-2.72-5-.1A8.78,8.78,0,0,1,467.88,302.61ZM453.22,339a10,10,0,0,1-4,.17c-.77,3.25.49,4.43,3.85,3.61A10.52,10.52,0,0,1,453.22,339Zm34.47-7.06a9.51,9.51,0,0,1,1.66,3.41c3.21-.6,3.83-2.17,1.9-4.79A9.77,9.77,0,0,1,487.69,331.89Zm1.53-19.44a9.53,9.53,0,0,1-1.62,3.42,9.82,9.82,0,0,1,3.56,1.33C493.06,314.56,492.45,313,489.22,312.46ZM483,338.78a10,10,0,0,1,.17,4c3.25.77,4.43-.49,3.61-3.85A10.52,10.52,0,0,1,483,338.78Zm6.44-14.91a9.27,9.27,0,0,1,2.65,2.39c2.7-1.75,2.72-3.37.1-5A8.78,8.78,0,0,1,489.39,323.88ZM476.12,343.6a9.82,9.82,0,0,1-1.33,3.56c2.65,1.91,4.19,1.29,4.75-1.94A9.53,9.53,0,0,1,476.12,343.6Zm-16,.09a9.51,9.51,0,0,1-3.41,1.66c.6,3.21,2.17,3.83,4.79,1.9A9.77,9.77,0,0,1,460.11,343.69Zm8,1.7a9.27,9.27,0,0,1-2.39,2.65c1.75,2.7,3.37,2.72,5,.1A8.78,8.78,0,0,1,468.12,345.39Z"/><path class="cls-84" d="M450.06,314.9c-1.15-2.45-.39-3.64,2.33-3.61a7.92,7.92,0,0,0,.8,3.06A8.14,8.14,0,0,0,450.06,314.9Zm8.12-5.41a8.35,8.35,0,0,1,.51-3.32c-2.53-1.16-3.7-.32-3.58,2.56A8.76,8.76,0,0,1,458.18,309.49Zm-7.68,11.14a7.72,7.72,0,0,1-1.78-2.39c-2.49,1-2.77,2.31-.89,4.09A7.31,7.31,0,0,1,450.5,320.62Zm32-6.44a8.35,8.35,0,0,1,3.32.51c1.16-2.53.32-3.7-2.56-3.58A8.77,8.77,0,0,1,482.51,314.18Zm-18-7.52a8.18,8.18,0,0,1,1.66-2.69c-1.86-2-3.21-1.74-4.19.81A7.94,7.94,0,0,1,464.55,306.66Zm-13.89,20.79a8.18,8.18,0,0,1-2.69-1.66c-2,1.86-1.74,3.21.81,4.19A7.94,7.94,0,0,1,450.66,327.45Zm27-18.26a7.92,7.92,0,0,1,3.06-.8c0-2.72-1.15-3.49-3.61-2.33A8.14,8.14,0,0,1,477.65,309.19Zm-6.28-2.69a7.73,7.73,0,0,1,2.39-1.78c-1-2.49-2.31-2.77-4.09-.89A7.32,7.32,0,0,1,471.38,306.5Zm-17.89,27.32a8.35,8.35,0,0,1-3.32-.51c-1.16,2.53-.32,3.7,2.56,3.58A8.77,8.77,0,0,1,453.49,333.82Zm29.32-.17a7.92,7.92,0,0,1,.8,3.06c2.72,0,3.49-1.15,2.33-3.61A8.14,8.14,0,0,1,482.81,333.65ZM487.22,318a7.94,7.94,0,0,1-1.88,2.53,8.18,8.18,0,0,1,2.69,1.66C490,320.35,489.77,319,487.22,318Zm-9.4,20.5a8.35,8.35,0,0,1-.51,3.32c2.53,1.16,3.7.32,3.58-2.56A8.77,8.77,0,0,1,477.82,338.51Zm7.68-11.14a7.73,7.73,0,0,1,1.78,2.39c2.49-1,2.77-2.31.89-4.09A7.31,7.31,0,0,1,485.5,327.38Zm-14.05,14a8.18,8.18,0,0,1-1.66,2.69c1.86,2,3.21,1.74,4.19-.81A7.94,7.94,0,0,1,471.45,341.34Zm-13.1-2.53a7.93,7.93,0,0,1-3.06.8c0,2.72,1.15,3.49,3.61,2.33A8.14,8.14,0,0,1,458.35,338.81Zm6.28,2.69a7.72,7.72,0,0,1-2.39,1.78c1,2.49,2.31,2.77,4.09.89A7.31,7.31,0,0,1,464.62,341.5Z"/><path class="cls-85" d="M454.82,313.64c-.54-2.19.27-3,2.49-2.57a6.6,6.6,0,0,0,.16,2.63A6.78,6.78,0,0,0,454.82,313.64Zm7.52-3.1a7,7,0,0,1,1-2.63c-1.88-1.36-3-.86-3.34,1.51A7.3,7.3,0,0,1,462.33,310.54Zm-8.09,7.85a6.44,6.44,0,0,1-1.06-2.24c-2.2.41-2.64,1.44-1.4,3.2A6.1,6.1,0,0,1,454.24,318.39Zm27.22-.06a7,7,0,0,1,2.63,1c1.36-1.88.86-3-1.51-3.34A7.3,7.3,0,0,1,481.46,318.33ZM468,309.27a6.82,6.82,0,0,1,1.8-1.93c-1.19-1.93-2.34-1.94-3.56,0A6.62,6.62,0,0,1,468,309.27ZM453.27,324a6.82,6.82,0,0,1-1.93-1.8c-1.93,1.19-1.94,2.34,0,3.56A6.62,6.62,0,0,1,453.27,324Zm25-10.54a6.6,6.6,0,0,1,2.63-.16c.47-2.22-.37-3-2.57-2.49A6.78,6.78,0,0,1,478.3,313.46Zm-4.69-3.22a6.44,6.44,0,0,1,2.24-1.06c-.41-2.2-1.44-2.64-3.2-1.4A6.1,6.1,0,0,1,473.61,310.24Zm-19.07,19.42a7,7,0,0,1-2.63-1c-1.36,1.88-.86,3,1.51,3.34A7.3,7.3,0,0,1,454.54,329.67Zm24,4.63a6.6,6.6,0,0,1,.16,2.63c2.22.47,3-.37,2.49-2.57A6.78,6.78,0,0,1,478.54,334.3Zm6.14-12.06a6.61,6.61,0,0,1-1.95,1.76,6.82,6.82,0,0,1,1.93,1.8C486.59,324.6,486.6,323.45,484.68,322.23Zm-11,15.23a7,7,0,0,1-1,2.63c1.88,1.36,3,.86,3.34-1.51A7.3,7.3,0,0,1,473.67,337.46Zm8.09-7.85a6.44,6.44,0,0,1,1.06,2.24c2.2-.41,2.64-1.44,1.4-3.2A6.1,6.1,0,0,1,481.76,329.61ZM468,338.73a6.82,6.82,0,0,1-1.8,1.93c1.19,1.93,2.34,1.94,3.56,0A6.62,6.62,0,0,1,468,338.73Zm-10.3-4.2a6.6,6.6,0,0,1-2.63.16c-.47,2.22.37,3,2.57,2.49A6.78,6.78,0,0,1,457.7,334.54Zm4.69,3.22a6.44,6.44,0,0,1-2.24,1.06c.41,2.2,1.44,2.64,3.2,1.4A6.1,6.1,0,0,1,462.39,337.76Z"/><path class="cls-65" d="M483,324c-15,0-15,0-1.18,5.84C468,324,468,324,478.62,334.62,468,324,468,324,473.85,337.83,468,324,468,324,468,339c0-15,0-15-5.84-1.18C468,324,468,324,457.41,334.62,468,324,468,324,454.19,329.85,468,324,468,324,453,324c15,0,15,0,1.18-5.84C468,324,468,324,457.41,313.41,468,324,468,324,462.17,310.19,468,324,468,324,468,309c0,15,0,15,5.84,1.18C468,324,468,324,478.62,313.41,468,324,468,324,481.83,318.17,468,324,468,324,483,324Z"/></svg>