<?xml version="1.0" encoding="utf-8"?>
<!-- Generator: Adobe Illustrator 20.1.0, SVG Export Plug-In . SVG Version: 6.00 Build 0)  -->
<svg version="1.1" id="cube" xmlns="http://www.w3.org/2000/svg" xmlns:xlink="http://www.w3.org/1999/xlink" x="0px" y="0px"
	 viewBox="0 0 240.9 278" style="enable-background:new 0 0 240.9 278;" xml:space="preserve">
<style type="text/css">
	.st0{enable-background:new    ;}
	.st1{clip-path:url(#SVGID_2_);}
	.st2{fill:#A666FC;}
	.st3{clip-path:url(#SVGID_4_);}
	.st4{clip-path:url(#SVGID_6_);}
</style>
<g id="cube-first-group">
	<g id="cube-second-group">
		<g id="cube-third-group" class="st0">
			<g id="cube-left">
				<g id="cube-left-letters" class="st0">
					<g>
						<g>
							<g>
								<g>
									<g>
										<defs>
											<polygon id="SVGID_1_" points="121,139.3 120.7,278 0,208.3 0.4,69.7 											"/>
										</defs>
										<clipPath id="SVGID_2_">
											<use xlink:href="#SVGID_1_"  style="overflow:visible;"/>
										</clipPath>
										<g class="st1">
											<g>
												<g>
													<g>
														<polyline class="st2" points="112.2,213.5 4.4,151.3 4.4,167.1 49.9,193.4 49.9,202.2 4.3,175.9 4.3,191.7 
															112.1,253.9 112.2,238.1 61.1,208.6 61.1,199.8 112.2,229.3 112.2,213.5 														"/>
														<path class="st2" d="M19.4,134.8c-3.8-2.2-5.2-4.7-5.2-7.4c0-2.4,1.4-3.6,5.3-1.4L98,171.3c3.8,2.2,5.1,5.1,5.1,7.4
															c0,2.6-1.1,3.7-5.1,1.5L19.4,134.8 M94.4,153.4L22.7,112c-14.6-8.4-19.6-3-19.6,9.4c0,11.6,5.2,22.8,19.5,31
															l71.6,41.4c14,8.1,19.7,3.9,19.8-8.3C114.1,173.3,109.1,161.9,94.4,153.4"/>
														<path class="st2" d="M114.2,135.8l-11.1-6.4c0,2.6-1.1,3.7-5.1,1.5L19.5,85.5c-3.8-2.2-5.2-4.7-5.2-7.4L3.2,71.7
															c0,0.2,0,0.3,0,0.5c0,11.6,5.2,22.8,19.5,31l71.6,41.4c14,8.1,19.7,3.9,19.8-8.3C114.2,136.1,114.2,135.9,114.2,135.8
															"/>
													</g>
												</g>
											</g>
										</g>
									</g>
								</g>
							</g>
						</g>
					</g>
				</g>
			</g>
			<g id="cube-right">
				<g id="cube-right-letters" class="st0">
					<g>
						<g>
							<g>
								<g>
									<g>
										<defs>
											<polygon id="SVGID_3_" points="121,139.3 240.9,69.7 240.5,208.3 120.7,278 											"/>
										</defs>
										<clipPath id="SVGID_4_">
											<use xlink:href="#SVGID_3_"  style="overflow:visible;"/>
										</clipPath>
										<g class="st3">
											<g>
												<g>
													<g>
														<path class="st2" d="M157,226.8v-5.2c0-17.1-4.4-27.5-12.1-36.1c-6.2-6.8-7.6-16.6-7.5-24.9v-4.9
															c0-5.7,1.2-8.2,3.8-9.7c3.1-1.8,4.5,0.3,4.5,13c0,5.9-0.3,10.4-0.7,13.5l10.7-5.3c0.4-3.5,0.7-7.7,0.7-16.2
															c0-17.1-3.7-24.5-15.6-17.6c-12,7-17.2,18.5-17.3,34.5v3.1c0,14.8,2.7,23.5,10.6,32.2c8.1,8.9,9.4,17.7,9.4,27.6v7.8
															c0,5.9-1.2,8.6-3.8,10.2c-3.7,2.1-5.1,0-5-12.5c0-5.7,0.6-11.4,1-14.4l-10.6,5.2c-0.6,3.8-1.2,10.4-1.2,17.3
															c-0.1,18.6,4.6,23.7,15.1,17.6C150.4,255.2,156.9,245.2,157,226.8"/>
														<path class="st2" d="M197.2,205.4l0.3-103.2l-11.7,6.8l-0.3,106.8c0,4.2-1.6,7.3-4.4,8.9c-3,1.7-4.2,0.3-4.2-3.7
															l0.3-106.9l-13.7,7.9l-0.3,103.4c0,15,6,19,17,12.6C191.7,231.2,197.1,220.1,197.2,205.4"/>
														<polyline class="st2" points="238,202.3 238.3,78.4 227.1,85 226.9,149.1 226.3,149.4 216.3,91.2 205.6,97.4 
															205.3,221.3 216.4,214.9 216.6,144.4 217.3,144 229.4,207.3 238,202.3 														"/>
													</g>
												</g>
											</g>
										</g>
									</g>
								</g>
							</g>
						</g>
					</g>
				</g>
			</g>
			<g id="cube-top">
				<g id="cube-top-letters" class="st0">
					<g>
						<g>
							<g>
								<g>
									<g>
										<defs>
											<polygon id="SVGID_5_" points="0.4,69.7 120.3,0 240.9,69.7 121,139.3 											"/>
										</defs>
										<clipPath id="SVGID_6_">
											<use xlink:href="#SVGID_5_"  style="overflow:visible;"/>
										</clipPath>
										<g class="st4">
											<g>
												<g>
													<g>
														<path class="st2" d="M111.4,114.3L39.7,72.9c-14.4-8.3-26.4-7.2-37.1-1.1l11.1,6.4c2.1-1.2,5.2-1.4,9.1,0.8l78.5,45.3
															c3.8,2.2,3.3,4,1.3,5.2l11.1,6.4C123.8,129.7,125.9,122.7,111.4,114.3"/>
														<polyline class="st2" points="170.1,101 62.3,38.8 51,45.3 106.8,77.5 106.2,77.8 40.3,51.5 29.6,57.8 137.4,120 
															148.5,113.6 87.2,78.2 88,77.8 161.5,106 170.1,101 														"/>
														<polyline class="st2" points="192.2,88.2 84.4,25.9 70.7,33.9 178.6,96.1 192.2,88.2 														"/>
														<polyline class="st2" points="229,66.8 217.8,60.3 203.2,68.8 163.1,45.7 174.8,38.9 163.6,32.5 151.9,39.3 
															117.7,19.5 132.3,11.1 121.1,4.6 92.9,21 200.7,83.2 229,66.8 														"/>
													</g>
												</g>
											</g>
										</g>
									</g>
								</g>
							</g>
						</g>
					</g>
				</g>
			</g>
		</g>
	</g>
</g>
</svg>
