<?xml version="1.0" encoding="utf-8"?>
<!-- Generator: Adobe Illustrator 20.1.0, SVG Export Plug-In . SVG Version: 6.00 Build 0)  -->
<svg version="1.1" id="Layer_1" xmlns="http://www.w3.org/2000/svg" xmlns:xlink="http://www.w3.org/1999/xlink" x="0px" y="0px"
	 viewBox="0 0 90 90" style="enable-background:new 0 0 90 90;" xml:space="preserve">
<style type="text/css">
	.st0{fill:#A666FC;}
</style>
<title>menu_icon</title>
<path class="st0" d="M11.3,13.3h67.5c4,0,7.2,2.2,7.2,5l0,0c0,2.8-3.2,5-7.2,5H11.3c-4,0-7.2-2.2-7.2-5l0,0
	C4,15.5,7.3,13.3,11.3,13.3z"/>
<path class="st0" d="M11.3,40h67.5c4,0,7.2,2.2,7.2,5l0,0c0,2.8-3.2,5-7.2,5H11.3c-4,0-7.3-2.2-7.3-5l0,0C4,42.2,7.3,40,11.3,40z"/>
<path class="st0" d="M11.3,66.7h67.5c4,0,7.2,2.2,7.2,5l0,0c0,2.8-3.2,5-7.2,5H11.3c-4,0-7.2-2.2-7.2-5l0,0
	C4,68.9,7.3,66.7,11.3,66.7z"/>
</svg>
