<?xml version="1.0" encoding="utf-8"?>
<!-- Generator: Adobe Illustrator 20.1.0, SVG Export Plug-In . SVG Version: 6.00 Build 0)  -->
<svg version="1.1" id="layer-1" xmlns="http://www.w3.org/2000/svg" xmlns:xlink="http://www.w3.org/1999/xlink" x="0px" y="0px"
	 viewBox="0 0 475 563.5" style="enable-background:new 0 0 475 563.5;" xml:space="preserve">
<style type="text/css">
	.st0{fill:#6A4542;}
	.st1{fill:#24420E;}
	.st2{fill:none;stroke:#42210B;stroke-miterlimit:10;}
	.st3{fill:#007042;}
	.st4{fill:#009649;}

	#tree {
		animation: trunkGrowing 1s ease-in;
	}

	@keyframes trunkGrowing {
		0% {
			opacity: 0;
		
		}
		25% {
			opacity: .25;
		
		}
		50% {
			opacity: .50
		
		}
		75% {
			opacity: .75;
	
		}
		100% {
			opacity: 1;

		}
	}
</style>
<title>tree</title>
<g id="layer-2">
	<g id="layer-3">
		<g id="tree">
			
				<image style="overflow:visible;opacity:0.75;enable-background:new    ;" width="460" height="604" id="shadow" xlink:href="9714C4026A4F7366.png"  transform="matrix(1 0 0 1 14.54 -8.02)">
			</image>
			<g id="middle-branch">
				<polygon class="st0" points="154.6,156.4 206,246.2 225.2,227 244.4,207.8 				"/>
				<polygon class="st0" points="143.6,145.6 182.1,212.9 196.5,198.6 210.9,184.2 				"/>
				<polygon class="st0" points="131.6,134 160.5,184.5 171.3,173.7 182.1,162.9 				"/>
				<polygon class="st0" points="123.6,126.3 145.3,164.2 153.4,156.1 161.5,148 				"/>
			</g>
			<g id="bottom-branch-right">
				<polygon class="st0" points="333.1,226.4 281.6,316.1 262.5,297 243.3,277.8 				"/>
				<polygon class="st0" points="344.1,215.6 305.5,282.9 291.1,268.5 276.7,254.1 				"/>
				<polygon class="st0" points="356.1,204 327.1,254.5 316.4,243.7 305.6,232.9 				"/>
				<polygon class="st0" points="364.1,196.3 342.4,234.2 334.3,226.1 326.2,218 				"/>
			</g>
			<g id="bottom-branch-left">
				<polygon class="st0" points="159.1,270.7 185.5,370.8 209,357.2 232.5,343.6 				"/>
				<polygon class="st0" points="151.3,257.5 171.1,332.5 188.7,322.3 206.3,312.1 				"/>
				<polygon class="st0" points="142.7,243.2 157.5,299.5 170.8,291.8 184,284.2 				"/>
				<polygon class="st0" points="136.9,233.7 148.1,275.9 158,270.2 167.9,264.5 				"/>
			</g>
			<path id="top-leaves-left" class="st1" d="M137.8,144.2c29.3,4.3,56.6-16,60.9-45.3c4.3-29.3-16-56.6-45.3-60.9
				c-13.5-2-27.2,1.3-38.4,9c-0.2-0.2-0.4-0.4-0.6-0.6c-20.7-21.2-54.7-21.6-75.9-0.9s-21.6,54.7-0.9,75.9c0.3,0.3,0.6,0.6,0.9,0.9
				c0.3,0.3,0.6,0.6,0.9,0.9c-15.9,25-8.5,58.2,16.5,74.1s58.2,8.5,74.1-16.5C136.9,169.9,139.7,157,137.8,144.2L137.8,144.2z"/>
			<path id="tree-trunk" class="st0" d="M282.1,395.1v-154c-0.3,0-0.6,0-0.9,0c-5.6,0.2-10.3-4.2-10.5-9.9
				c-0.2-5.6,4.2-10.3,9.9-10.5c0.2,0,0.4,0,0.6,0c0.3,0,0.6,0,0.9,0l-10.5-62H215l-28.3,221.8c0,0-17.2,192.7-87.4,192.7h268.5
				C309.5,573.3,287.8,440,282.1,395.1z"/>
			<g id="tree-age-rings">
				<path class="st2" d="M187.7,380.6c0,0,56.1,36.8-14.5,85.1L187.7,380.6z"/>
				<path class="st2" d="M185,396.8c0,0,31.2,17.5-8.2,48.3L185,396.8z"/>
				<path class="st2" d="M170.9,477.1c0,0,101.5-48.4,17.6-106.4L170.9,477.1z"/>
			</g>
			<g id="top-branch-right">
				<polygon class="st0" points="330.5,59.4 319.3,101.6 309.4,95.9 299.5,90.2 				"/>
				<polygon class="st0" points="316.1,83.2 296.3,158.2 278.7,148 261.1,137.9 				"/>
				<polygon class="st0" points="324.7,68.9 309.9,125.2 296.7,117.5 283.4,109.9 				"/>
				<polygon class="st0" points="308.3,96.5 281.9,196.5 258.4,182.9 234.9,169.4 				"/>
			</g>
			<path id="top-leaves-right" class="st1" d="M290.8,127.4c-27.2,11.7-58.8-0.8-70.5-28.1s0.8-58.8,28.1-70.5
				c12.5-5.4,26.6-5.8,39.4-1.2c0.1-0.2,0.3-0.5,0.4-0.8C303,1.2,335.8-7.6,361.5,7.2s34.5,47.7,19.7,73.3l0,0
				c-0.2,0.4-0.5,0.7-0.7,1.1c21.8,20.1,23.3,54,3.2,75.8s-54,23.3-75.8,3.2C298.4,152,292.3,140.2,290.8,127.4L290.8,127.4z"/>
			<g id="top-branch-left">
				<polygon class="st0" points="196.8,121.2 211.8,178 225.2,170.3 238.5,162.6 				"/>
				<polygon class="st0" points="192.4,113.7 203.6,156.3 213.6,150.5 223.6,144.8 				"/>
				<polygon class="st0" points="187.5,105.6 195.9,137.5 203.4,133.2 211,128.9 				"/>
				<polygon class="st0" points="188.2,100.2 194.6,124.2 200.2,120.9 205.8,117.7 				"/>
			</g>
			<path id="center-leaves" class="st3" d="M212.9,138.8c27.2,11.7,58.8-0.9,70.5-28.1s-0.9-58.8-28.1-70.5
				c-12.5-5.4-26.5-5.8-39.3-1.2c-0.1-0.2-0.3-0.5-0.4-0.8c-14.8-25.7-47.7-34.5-73.3-19.7s-34.5,47.7-19.7,73.3l0,0
				c0.2,0.4,0.4,0.7,0.7,1.1c-21.8,20.1-23.3,54-3.2,75.8s54,23.3,75.8,3.2C205.3,163.4,211.4,151.6,212.9,138.8L212.9,138.8z"/>
			<path id="bottom-leaves-left" class="st4" d="M153,260.6c27.2,11.7,58.8-0.8,70.5-28.1s-0.8-58.8-28.1-70.5
				c-12.5-5.4-26.6-5.8-39.4-1.2c-0.1-0.2-0.3-0.5-0.4-0.8c-14.8-25.7-47.7-34.5-73.3-19.7S47.9,188,62.7,213.7
				c0.2,0.4,0.5,0.7,0.7,1.1c-21.8,20.1-23.3,54-3.2,75.8c20.1,21.8,54,23.3,75.8,3.2C145.4,285.2,151.5,273.4,153,260.6L153,260.6z
				"/>
			<path id="bottom-leaves-right" class="st4" d="M337.2,224.2c-29.3,4.3-56.6-16-60.9-45.3c-4.3-29.3,16-56.6,45.3-60.9
				c13.5-2,27.2,1.3,38.4,9c0.2-0.2,0.4-0.4,0.6-0.6c20.7-21.2,54.7-21.6,75.9-0.9s21.6,54.7,0.9,75.9c-0.3,0.3-0.6,0.6-0.9,0.9
				c-0.3,0.3-0.6,0.6-0.9,0.9c15.9,25,8.5,58.2-16.5,74.1s-58.2,8.5-74.1-16.5C338.1,249.9,335.3,237,337.2,224.2L337.2,224.2z"/>
		</g>
	</g>
</g>
</svg>
